<svg width="720" height="700" viewBox="0 0 720 700" fill="none" xmlns="http://www.w3.org/2000/svg">
<path d="M360 0C558.823 0 720 161.177 720 360C720 439.252 694.39 512.522 650.996 571.987C651.488 570.59 651.254 570.053 650.341 569.295C649.204 568.351 648.392 568.398 646.613 569.514C645.363 570.297 641.845 571.517 638.795 572.226C635.745 572.933 632.343 573.865 631.233 574.298C620.588 578.456 618.254 578.867 615.466 577.079C614.157 576.239 611.158 575.044 608.802 574.423C604.522 573.294 604.517 573.287 604.517 568.513C604.517 563.487 606.013 561.456 613.175 556.761C614.734 555.739 619.356 552.136 623.447 548.754C627.538 545.372 631.984 542.012 633.328 541.288C634.671 540.565 635.771 539.6 635.771 539.143C635.77 537.381 632.775 535.903 630.601 536.594C627.977 537.427 619.991 537.393 618.615 536.543C617.6 535.916 630.872 521.505 634.252 519.564C635.364 518.927 639.895 518.175 644.322 517.896L652.37 517.388L656.209 510.352C662.359 499.079 662.556 499.241 642.517 499.172L625.572 499.113L620.085 494.825C617.068 492.467 614.599 489.89 614.599 489.097C614.599 488.304 616.374 486.534 618.544 485.163C623.237 482.2 625.688 478.972 625.688 475.756C625.689 474.465 626.33 472.167 627.114 470.65C629.244 466.532 630.117 460.76 628.742 459.909C628.105 459.515 626.363 459.648 624.872 460.204C623.38 460.76 621.253 461.555 620.144 461.971C608.119 466.479 595.27 470.757 592.418 471.203C590.477 471.507 587.994 472.376 586.9 473.136C584.911 474.519 580.147 475.015 579.083 473.952C578.773 473.641 579.257 471.939 580.159 470.17C583.346 463.917 584.205 460.519 582.879 459.418C582.144 458.809 573.631 458.417 561.58 458.438C550.539 458.459 539.805 458.454 537.725 458.427L533.943 458.378V442.587L539.993 436.773C543.319 433.577 546.041 430.548 546.042 430.043C546.042 429.539 546.747 429.126 547.61 429.126C553.056 429.126 565.093 405.3 559.904 404.794C559.212 404.726 556.862 404.613 554.685 404.542C551.095 404.425 550.644 404.102 549.854 401.087C548.97 397.711 546.376 395.74 545.184 397.541C544.172 399.067 533.617 405.925 532.277 405.926C531.623 405.926 530.936 406.324 530.751 406.812C530.566 407.299 528.941 408.016 527.139 408.405C524.328 409.012 523.861 408.835 523.861 407.161C523.861 406.089 525.024 403.956 526.444 402.423C530.628 397.905 529.224 396.847 519.042 396.847C512.189 396.847 509.16 397.314 505.952 398.864C501.539 400.998 495.633 401.573 495.633 399.869C495.633 399.312 497.213 395.794 499.145 392.052C507.116 376.605 509.686 370.271 510.344 364.461C510.716 361.166 511.528 358.138 512.148 357.735C514.353 356.303 517.966 350.287 517.442 348.92C516.832 347.329 511.965 347.771 504.923 350.055C502.547 350.825 499.208 351.455 497.502 351.455C494.504 351.455 494.421 351.338 495.062 347.925C495.543 345.355 495.366 344.395 494.407 344.395C493.681 344.396 487.219 347.346 480.044 350.951C471.874 355.058 465.754 357.508 463.672 357.508C460.565 357.508 460.346 357.283 460.346 354.093C460.346 351.673 461.007 350.238 462.614 349.166C463.861 348.334 465.973 346.694 467.306 345.52C468.638 344.347 470.112 343.386 470.582 343.386C471.052 343.386 471.437 341.728 471.437 339.7C471.437 336.694 470.693 335.328 467.403 332.29C465.185 330.241 463.371 328.282 463.371 327.938C463.371 327.592 465.299 324.55 467.655 321.176C470.011 317.803 472.352 314.446 472.856 313.717C473.361 312.988 473.488 311.648 473.141 310.74C472.644 309.444 471.086 309.09 465.892 309.09C460.941 309.09 459.128 308.709 458.694 307.577C457.753 305.123 455.682 305.794 449.362 310.603C446.082 313.099 443.049 315.143 442.625 315.143C442.2 315.143 441.04 315.879 440.047 316.777C439.024 317.704 437.509 318.132 436.554 317.765C434.986 317.164 434.99 316.981 436.612 315.188C438.65 312.935 441.083 306.551 441.146 303.29C441.178 301.678 440.605 301.021 439.174 301.021C437.689 301.02 437.158 300.347 437.158 298.467C437.158 295.241 434.631 294.205 432.18 296.425C430.955 297.534 430.071 297.754 429.641 297.057C428.944 295.926 433.214 289.508 436.456 286.813C437.514 285.935 438.215 284.369 438.016 283.332C437.674 281.559 436.534 281.464 418.756 281.738C402.081 281.995 399.784 281.837 399.229 280.392C398.885 279.491 399.273 277.977 400.094 277.026C402.122 274.677 403.93 269.018 403.233 267.2C402.814 266.107 400.96 265.716 396.204 265.716C392.653 265.716 388.959 265.328 387.995 264.855C384.792 263.281 379.21 260.875 377.423 260.297C374.833 259.46 375.274 256.735 378.179 255.629C381.631 254.316 381.464 250.685 377.808 247.531C376.217 246.159 371.457 243.304 367.23 241.185C357.8 236.459 346.421 225.678 346.421 221.469C346.421 219.458 345.656 218.46 343.319 217.425C341.614 216.669 339.946 215.311 339.613 214.405C339.281 213.5 337.614 210.943 335.91 208.724C334.206 206.505 332.358 203.973 331.803 203.097C324.346 191.317 316.928 183.755 309.685 180.551C304.397 178.211 304.077 177.864 304.077 174.483V170.897H296.977C289.995 170.897 289.797 170.824 285.131 166.504C282.521 164.087 278.344 160.234 275.849 157.941C273.13 155.443 269.898 153.515 267.783 153.131C265.842 152.778 261.079 150.899 257.197 148.956C251.797 146.254 249.008 145.459 245.321 145.572C239.42 145.753 236.527 144.397 237.212 141.773C237.603 140.276 235.994 138.722 229.812 134.633L221.91 129.405L213.772 129.726C207.596 129.969 205.199 130.481 203.829 131.853C202.836 132.846 199.692 135.185 196.844 137.05C193.996 138.914 189.7 142.281 187.299 144.531C182.318 149.198 182.312 151.265 187.266 155.895C189.636 158.11 190.034 159.134 189.522 161.694C188.984 164.388 189.253 164.936 191.543 165.808C193.503 166.553 194.195 167.535 194.219 169.611C194.253 172.432 197.204 176.949 199.013 176.949C200.607 176.949 202.462 179.765 203.173 183.26C203.638 185.548 204.478 186.625 205.966 186.841C209.074 187.292 209.688 191.04 207.105 193.792C204.745 196.306 204.969 196.498 211.511 197.583C213.554 197.922 216.617 199.42 218.316 200.912C221.028 203.294 221.406 204.274 221.406 208.928C221.406 214.781 219.062 221.861 216.201 224.65C215.182 225.643 214.349 226.89 214.349 227.424C214.349 229.633 210.439 228.139 199.88 221.896C196.847 220.102 191.866 218.437 186.773 217.515C177.016 215.747 172.958 215.708 169.885 217.354C167.69 218.528 167.677 218.622 169.496 219.953C170.534 220.712 172.274 221.333 173.362 221.333C175.403 221.333 186.141 231.112 186.093 232.925C186.077 233.485 184.735 235.53 183.11 237.472L180.154 241.002L177.068 239.272C175.371 238.321 171.268 236.982 167.952 236.297C164.636 235.612 161.924 234.704 161.924 234.279C161.924 232.49 157.942 231.37 155.968 232.604C154.304 233.642 153.714 233.499 152.164 231.672C150.602 229.831 149.614 229.596 145.526 230.093C141.666 230.562 140.647 231.096 140.338 232.813C140.127 233.989 139.453 237.701 138.84 241.062C136.217 255.465 138.472 265.715 144.265 265.716C145.659 265.716 146.801 266.076 146.801 266.517C146.801 266.956 149.637 267.91 153.102 268.634C156.568 269.358 160.833 270.587 162.58 271.363C164.327 272.141 166.657 272.776 167.758 272.776C169.942 272.776 174.973 275.122 175.938 276.59C176.856 277.985 189.895 286.898 191.019 286.898C192.138 286.898 198.218 298.909 198.218 301.118C198.218 303.677 209.209 318.377 218.51 328.255C226.235 336.461 227.87 338.714 228.057 341.411C228.376 346.033 232.473 353.073 236.637 356.152C240.388 358.928 240.515 359.219 240.538 365.156C240.551 368.531 240.846 371.576 241.191 371.922C242.551 373.282 246.392 386.537 246.827 391.367C247.081 394.178 248.085 398.036 249.059 399.94C250.569 402.894 250.908 407.336 251.368 430.135C251.665 444.836 252.299 457.361 252.778 457.966C253.633 459.049 249.913 471.412 248.388 472.553C247.978 472.858 247.178 475.581 246.609 478.604C245.172 486.249 243.611 490.752 241.424 493.566C240.396 494.89 239.554 496.625 239.554 497.424C239.554 498.223 236.958 504.175 233.784 510.653L228.015 522.431L227.88 542.101C227.805 552.918 227.225 564.221 226.589 567.219C224.904 575.164 228.108 590.578 233.579 600.844C234.092 601.807 234.513 603.409 234.513 604.402C234.513 605.396 235.117 607.105 235.854 608.198C236.592 609.293 238.491 614.388 240.072 619.519C241.655 624.649 243.47 628.848 244.106 628.849C246.292 628.849 250.816 642.345 252.728 654.571C255.643 673.214 255.114 681.681 250.744 686.356C249.857 687.306 246.863 690.835 244.091 694.2C242.328 696.34 240.758 698.029 239.359 699.286C99.8714 649.685 0 516.507 0 360C0 161.177 161.177 0 360 0Z" fill="#FE8F21"/>
</svg>
