<svg width="163" height="56" viewBox="0 0 163 56" fill="none" xmlns="http://www.w3.org/2000/svg">
<path d="M40.8372 2.41001C41.3052 3.05801 41.7912 3.83201 42.2952 4.73201C42.8352 5.59601 43.3572 6.47801 43.8612 7.37801C44.3652 8.24201 44.7612 8.99801 45.0492 9.64601L40.5672 11.536C40.2432 10.78 39.8292 9.97001 39.3252 9.10601C38.8572 8.20601 38.3712 7.34201 37.8672 6.51401C37.3632 5.65001 36.8772 4.89401 36.4092 4.24601L40.8372 2.41001ZM48.1272 0.682007C48.5952 1.33001 49.0992 2.08601 49.6392 2.95001C50.1792 3.81401 50.7012 4.67801 51.2052 5.54201C51.7092 6.40601 52.1232 7.16201 52.4472 7.81001L47.9652 9.75401C47.3892 8.63801 46.7052 7.39601 45.9132 6.02801C45.1572 4.66001 44.4012 3.49001 43.6452 2.51801L48.1272 0.682007ZM7.6812 10.888C8.6892 10.996 9.8232 11.086 11.0832 11.158C12.3432 11.194 13.4412 11.212 14.3772 11.212H41.5392C42.3672 11.212 43.2492 11.212 44.1852 11.212C45.1572 11.176 45.8592 11.14 46.2912 11.104C46.2552 11.716 46.2192 12.508 46.1832 13.48C46.1472 14.416 46.1292 15.28 46.1292 16.072V44.044C46.1292 44.98 46.1472 46.078 46.1832 47.338C46.2552 48.598 46.3272 49.624 46.3992 50.416H38.5692C38.6052 49.624 38.6232 48.742 38.6232 47.77C38.6592 46.834 38.6772 45.88 38.6772 44.908V18.178H14.3772C13.2252 18.178 12.0012 18.196 10.7052 18.232C9.4452 18.268 8.4372 18.322 7.6812 18.394V10.888ZM7.0332 40.21C7.9332 40.282 8.9772 40.354 10.1652 40.426C11.3532 40.498 12.5412 40.534 13.7292 40.534H42.9432V47.608H13.9452C12.9012 47.608 11.6952 47.644 10.3272 47.716C8.9952 47.788 7.8972 47.86 7.0332 47.932V40.21Z" fill="#F1E6D4"/>
<path d="M93.9192 6.02801C94.4232 6.78401 94.9632 7.66601 95.5392 8.67401C96.1512 9.64601 96.7452 10.636 97.3212 11.644C97.8972 12.616 98.4012 13.534 98.8332 14.398L94.1352 16.396C93.5952 15.244 93.0912 14.218 92.6232 13.318C92.1552 12.382 91.6512 11.482 91.1112 10.618C90.6072 9.71801 90.0312 8.81801 89.3832 7.91801L93.9192 6.02801ZM101.317 3.43601C101.893 4.12001 102.487 4.94801 103.099 5.92001C103.711 6.89201 104.305 7.86401 104.881 8.83601C105.457 9.80801 105.961 10.69 106.393 11.482L101.803 13.534C101.227 12.418 100.669 11.41 100.129 10.51C99.6252 9.61001 99.1032 8.74601 98.5632 7.91801C98.0232 7.09001 97.4112 6.22601 96.7272 5.32601L101.317 3.43601ZM70.4292 5.00201C71.3292 5.47001 72.3372 6.04601 73.4532 6.73001C74.5692 7.41401 75.7032 8.13401 76.8552 8.89001C78.0072 9.61001 79.1052 10.312 80.1492 10.996C81.1932 11.644 82.0572 12.22 82.7412 12.724L78.7452 18.664C77.9892 18.16 77.0892 17.566 76.0452 16.882C75.0372 16.198 73.9572 15.496 72.8052 14.776C71.6892 14.056 70.5732 13.372 69.4572 12.724C68.3772 12.04 67.4052 11.446 66.5412 10.942L70.4292 5.00201ZM60.4392 43.342C62.4552 42.982 64.5072 42.532 66.5952 41.992C68.6832 41.452 70.7532 40.804 72.8052 40.048C74.8572 39.256 76.8552 38.32 78.7992 37.24C81.8592 35.512 84.7032 33.568 87.3312 31.408C89.9952 29.248 92.3892 26.962 94.5132 24.55C96.6372 22.102 98.4012 19.582 99.8052 16.99L103.963 24.334C101.479 28.078 98.3832 31.624 94.6752 34.972C91.0032 38.284 86.9532 41.218 82.5252 43.774C80.6892 44.782 78.6732 45.754 76.4772 46.69C74.2812 47.59 72.1212 48.364 69.9972 49.012C67.9092 49.66 66.0732 50.128 64.4892 50.416L60.4392 43.342ZM62.1132 17.314C63.0132 17.782 64.0392 18.358 65.1912 19.042C66.3432 19.726 67.4952 20.428 68.6472 21.148C69.7992 21.832 70.8792 22.516 71.8872 23.2C72.9312 23.848 73.7952 24.424 74.4792 24.928L70.5372 30.976C69.7452 30.436 68.8272 29.824 67.7832 29.14C66.7752 28.456 65.6952 27.754 64.5432 27.034C63.4272 26.314 62.3112 25.63 61.1952 24.982C60.1152 24.298 59.1252 23.722 58.2252 23.254L62.1132 17.314Z" fill="#F1E6D4"/>
<path d="M120.541 6.08201C121.297 6.19001 122.197 6.26201 123.241 6.29801C124.285 6.33401 125.257 6.35201 126.157 6.35201C126.841 6.35201 127.885 6.35201 129.289 6.35201C130.729 6.35201 132.313 6.35201 134.041 6.35201C135.805 6.35201 137.551 6.35201 139.279 6.35201C141.007 6.35201 142.555 6.35201 143.923 6.35201C145.291 6.35201 146.299 6.35201 146.947 6.35201C147.775 6.35201 148.765 6.33401 149.917 6.29801C151.069 6.26201 152.023 6.19001 152.779 6.08201V13.048C152.059 12.976 151.123 12.94 149.971 12.94C148.855 12.904 147.811 12.886 146.839 12.886C146.263 12.886 145.273 12.886 143.869 12.886C142.501 12.886 140.935 12.886 139.171 12.886C137.443 12.886 135.697 12.886 133.933 12.886C132.205 12.886 130.639 12.886 129.235 12.886C127.831 12.886 126.805 12.886 126.157 12.886C125.293 12.886 124.339 12.904 123.295 12.94C122.287 12.976 121.369 13.012 120.541 13.048V6.08201ZM157.315 21.742C157.135 22.102 156.937 22.498 156.721 22.93C156.541 23.362 156.397 23.722 156.289 24.01C155.461 26.602 154.417 29.194 153.157 31.786C151.933 34.342 150.313 36.736 148.297 38.968C145.597 41.992 142.573 44.458 139.225 46.366C135.877 48.238 132.475 49.66 129.019 50.632L123.673 44.53C127.741 43.666 131.359 42.406 134.527 40.75C137.695 39.094 140.305 37.204 142.357 35.08C143.797 33.604 144.949 32.056 145.813 30.436C146.713 28.78 147.415 27.214 147.919 25.738C147.523 25.738 146.839 25.738 145.867 25.738C144.895 25.738 143.725 25.738 142.357 25.738C141.025 25.738 139.585 25.738 138.037 25.738C136.489 25.738 134.905 25.738 133.285 25.738C131.665 25.738 130.117 25.738 128.641 25.738C127.165 25.738 125.833 25.738 124.645 25.738C123.493 25.738 122.557 25.738 121.837 25.738C121.189 25.738 120.271 25.756 119.083 25.792C117.895 25.828 116.725 25.9 115.573 26.008V18.988C116.725 19.06 117.841 19.132 118.921 19.204C120.037 19.276 121.009 19.312 121.837 19.312C122.377 19.312 123.187 19.312 124.267 19.312C125.383 19.312 126.661 19.312 128.101 19.312C129.541 19.312 131.071 19.312 132.691 19.312C134.347 19.312 135.985 19.312 137.605 19.312C139.261 19.312 140.827 19.312 142.303 19.312C143.779 19.312 145.057 19.312 146.137 19.312C147.217 19.312 148.027 19.312 148.567 19.312C149.431 19.312 150.205 19.258 150.889 19.15C151.609 19.042 152.149 18.916 152.509 18.772L157.315 21.742Z" fill="#F1E6D4"/>
</svg>
