<svg width="162" height="55" viewBox="0 0 162 55" fill="none" xmlns="http://www.w3.org/2000/svg">
<path d="M40.3372 1.91001C40.8052 2.55801 41.2912 3.33201 41.7952 4.23201C42.3352 5.09601 42.8572 5.97801 43.3612 6.87801C43.8652 7.74201 44.2612 8.49801 44.5492 9.14601L40.0672 11.036C39.7432 10.28 39.3292 9.47001 38.8252 8.60601C38.3572 7.70601 37.8712 6.84201 37.3672 6.01401C36.8632 5.15001 36.3772 4.39401 35.9092 3.74601L40.3372 1.91001ZM47.6272 0.182007C48.0952 0.830007 48.5992 1.58601 49.1392 2.45001C49.6792 3.31401 50.2012 4.17801 50.7052 5.04201C51.2092 5.90601 51.6232 6.66201 51.9472 7.31001L47.4652 9.25401C46.8892 8.13801 46.2052 6.89601 45.4132 5.52801C44.6572 4.16001 43.9012 2.99001 43.1452 2.01801L47.6272 0.182007ZM7.1812 10.388C8.1892 10.496 9.3232 10.586 10.5832 10.658C11.8432 10.694 12.9412 10.712 13.8772 10.712H41.0392C41.8672 10.712 42.7492 10.712 43.6852 10.712C44.6572 10.676 45.3592 10.64 45.7912 10.604C45.7552 11.216 45.7192 12.008 45.6832 12.98C45.6472 13.916 45.6292 14.78 45.6292 15.572V43.544C45.6292 44.48 45.6472 45.578 45.6832 46.838C45.7552 48.098 45.8272 49.124 45.8992 49.916H38.0692C38.1052 49.124 38.1232 48.242 38.1232 47.27C38.1592 46.334 38.1772 45.38 38.1772 44.408V17.678H13.8772C12.7252 17.678 11.5012 17.696 10.2052 17.732C8.9452 17.768 7.9372 17.822 7.1812 17.894V10.388ZM6.5332 39.71C7.4332 39.782 8.4772 39.854 9.6652 39.926C10.8532 39.998 12.0412 40.034 13.2292 40.034H42.4432V47.108H13.4452C12.4012 47.108 11.1952 47.144 9.8272 47.216C8.4952 47.288 7.3972 47.36 6.5332 47.432V39.71Z" fill="#1C1815"/>
<path d="M93.4192 5.52801C93.9232 6.28401 94.4632 7.16601 95.0392 8.17401C95.6512 9.14601 96.2452 10.136 96.8212 11.144C97.3972 12.116 97.9012 13.034 98.3332 13.898L93.6352 15.896C93.0952 14.744 92.5912 13.718 92.1232 12.818C91.6552 11.882 91.1512 10.982 90.6112 10.118C90.1072 9.21801 89.5312 8.31801 88.8832 7.41801L93.4192 5.52801ZM100.817 2.93601C101.393 3.62001 101.987 4.44801 102.599 5.42001C103.211 6.39201 103.805 7.36401 104.381 8.33601C104.957 9.30801 105.461 10.19 105.893 10.982L101.303 13.034C100.727 11.918 100.169 10.91 99.6292 10.01C99.1252 9.11001 98.6032 8.24601 98.0632 7.41801C97.5232 6.59001 96.9112 5.72601 96.2272 4.82601L100.817 2.93601ZM69.9292 4.50201C70.8292 4.97001 71.8372 5.54601 72.9532 6.23001C74.0692 6.91401 75.2032 7.63401 76.3552 8.39001C77.5072 9.11001 78.6052 9.81201 79.6492 10.496C80.6932 11.144 81.5572 11.72 82.2412 12.224L78.2452 18.164C77.4892 17.66 76.5892 17.066 75.5452 16.382C74.5372 15.698 73.4572 14.996 72.3052 14.276C71.1892 13.556 70.0732 12.872 68.9572 12.224C67.8772 11.54 66.9052 10.946 66.0412 10.442L69.9292 4.50201ZM59.9392 42.842C61.9552 42.482 64.0072 42.032 66.0952 41.492C68.1832 40.952 70.2532 40.304 72.3052 39.548C74.3572 38.756 76.3552 37.82 78.2992 36.74C81.3592 35.012 84.2032 33.068 86.8312 30.908C89.4952 28.748 91.8892 26.462 94.0132 24.05C96.1372 21.602 97.9012 19.082 99.3052 16.49L103.463 23.834C100.979 27.578 97.8832 31.124 94.1752 34.472C90.5032 37.784 86.4532 40.718 82.0252 43.274C80.1892 44.282 78.1732 45.254 75.9772 46.19C73.7812 47.09 71.6212 47.864 69.4972 48.512C67.4092 49.16 65.5732 49.628 63.9892 49.916L59.9392 42.842ZM61.6132 16.814C62.5132 17.282 63.5392 17.858 64.6912 18.542C65.8432 19.226 66.9952 19.928 68.1472 20.648C69.2992 21.332 70.3792 22.016 71.3872 22.7C72.4312 23.348 73.2952 23.924 73.9792 24.428L70.0372 30.476C69.2452 29.936 68.3272 29.324 67.2832 28.64C66.2752 27.956 65.1952 27.254 64.0432 26.534C62.9272 25.814 61.8112 25.13 60.6952 24.482C59.6152 23.798 58.6252 23.222 57.7252 22.754L61.6132 16.814Z" fill="#1C1815"/>
<path d="M120.041 5.58201C120.797 5.69001 121.697 5.76201 122.741 5.79801C123.785 5.83401 124.757 5.85201 125.657 5.85201C126.341 5.85201 127.385 5.85201 128.789 5.85201C130.229 5.85201 131.813 5.85201 133.541 5.85201C135.305 5.85201 137.051 5.85201 138.779 5.85201C140.507 5.85201 142.055 5.85201 143.423 5.85201C144.791 5.85201 145.799 5.85201 146.447 5.85201C147.275 5.85201 148.265 5.83401 149.417 5.79801C150.569 5.76201 151.523 5.69001 152.279 5.58201V12.548C151.559 12.476 150.623 12.44 149.471 12.44C148.355 12.404 147.311 12.386 146.339 12.386C145.763 12.386 144.773 12.386 143.369 12.386C142.001 12.386 140.435 12.386 138.671 12.386C136.943 12.386 135.197 12.386 133.433 12.386C131.705 12.386 130.139 12.386 128.735 12.386C127.331 12.386 126.305 12.386 125.657 12.386C124.793 12.386 123.839 12.404 122.795 12.44C121.787 12.476 120.869 12.512 120.041 12.548V5.58201ZM156.815 21.242C156.635 21.602 156.437 21.998 156.221 22.43C156.041 22.862 155.897 23.222 155.789 23.51C154.961 26.102 153.917 28.694 152.657 31.286C151.433 33.842 149.813 36.236 147.797 38.468C145.097 41.492 142.073 43.958 138.725 45.866C135.377 47.738 131.975 49.16 128.519 50.132L123.173 44.03C127.241 43.166 130.859 41.906 134.027 40.25C137.195 38.594 139.805 36.704 141.857 34.58C143.297 33.104 144.449 31.556 145.313 29.936C146.213 28.28 146.915 26.714 147.419 25.238C147.023 25.238 146.339 25.238 145.367 25.238C144.395 25.238 143.225 25.238 141.857 25.238C140.525 25.238 139.085 25.238 137.537 25.238C135.989 25.238 134.405 25.238 132.785 25.238C131.165 25.238 129.617 25.238 128.141 25.238C126.665 25.238 125.333 25.238 124.145 25.238C122.993 25.238 122.057 25.238 121.337 25.238C120.689 25.238 119.771 25.256 118.583 25.292C117.395 25.328 116.225 25.4 115.073 25.508V18.488C116.225 18.56 117.341 18.632 118.421 18.704C119.537 18.776 120.509 18.812 121.337 18.812C121.877 18.812 122.687 18.812 123.767 18.812C124.883 18.812 126.161 18.812 127.601 18.812C129.041 18.812 130.571 18.812 132.191 18.812C133.847 18.812 135.485 18.812 137.105 18.812C138.761 18.812 140.327 18.812 141.803 18.812C143.279 18.812 144.557 18.812 145.637 18.812C146.717 18.812 147.527 18.812 148.067 18.812C148.931 18.812 149.705 18.758 150.389 18.65C151.109 18.542 151.649 18.416 152.009 18.272L156.815 21.242Z" fill="#1C1815"/>
</svg>
