<svg width="663" height="644" viewBox="0 0 663 644" fill="none" xmlns="http://www.w3.org/2000/svg">
<path d="M578 600L141 600C105.654 600 76.9999 571.346 76.9999 536L77 7.82715e-05L578 0.00012207L578 600Z" fill="#FE8F21"/>
<path d="M636.696 5.7C636.696 4.28133 637.146 3.16667 638.045 2.356C638.944 1.54533 640.167 1.14 641.712 1.14L650.49 1.14L650.49 2.774L641.712 2.774C640.597 2.774 639.749 3.021 639.166 3.515C638.583 4.02167 638.292 4.75 638.292 5.7C638.292 6.65 638.583 7.372 639.166 7.866C639.749 8.37267 640.597 8.626 641.712 8.626L650.49 8.626L650.49 10.26L641.712 10.26C640.167 10.26 638.944 9.85467 638.045 9.044C637.146 8.23333 636.696 7.11867 636.696 5.7ZM637 12.9126L638.596 12.9126L638.596 16.2756L648.894 16.2756L648.894 12.9126L650.49 12.9126L650.49 21.2726L648.894 21.2726L648.894 17.9096L638.596 17.9096L638.596 21.2726L637 21.2726L637 12.9126ZM634.91 24.8372L651.25 30.6132L651.25 32.1332L634.91 26.3572L634.91 24.8372ZM636.696 39.8777C636.696 38.4591 637.146 37.3444 638.045 36.5337C638.944 35.7231 640.167 35.3177 641.712 35.3177L650.49 35.3177L650.49 36.9517L641.712 36.9517C640.597 36.9517 639.749 37.1987 639.166 37.6927C638.583 38.1994 638.292 38.9277 638.292 39.8777C638.292 40.8277 638.583 41.5497 639.166 42.0437C639.749 42.5504 640.597 42.8037 641.712 42.8037L650.49 42.8037L650.49 44.4377L641.712 44.4377C640.167 44.4377 638.944 44.0324 638.045 43.2217C637.146 42.4111 636.696 41.2964 636.696 39.8777ZM637 46.5203L643.783 50.2443L650.49 46.5963L650.49 48.4963L645.075 51.2893L650.49 54.0823L650.49 55.9443L643.764 52.2963L637 56.0203L637 54.1203L642.491 51.2513L637 48.3823L637 46.5203ZM637 70.0655L650.49 70.0655L650.49 73.2575C650.49 74.4228 650.224 75.4361 649.692 76.2975C649.173 77.1715 648.406 77.8428 647.393 78.3115C646.392 78.7928 645.17 79.0335 643.726 79.0335C642.282 79.0335 641.06 78.7928 640.059 78.3115C639.058 77.8428 638.298 77.1715 637.779 76.2975C637.26 75.4361 637 74.4228 637 73.2575L637 70.0655ZM638.596 71.6995L638.596 73.1625C638.596 74.4798 639.02 75.4995 639.869 76.2215C640.73 76.9561 642.016 77.3235 643.726 77.3235C645.436 77.3235 646.722 76.9561 647.583 76.2215C648.457 75.4995 648.894 74.4798 648.894 73.1625L648.894 71.6995L638.596 71.6995ZM637 81.458L650.49 81.458L650.49 89.666L648.894 89.666L648.894 83.092L644.543 83.092L644.543 89.438L642.985 89.438L642.985 83.092L638.596 83.092L638.596 89.818L637 89.818L637 81.458ZM636.696 97.0496C636.696 96.0996 636.892 95.2573 637.285 94.5226C637.678 93.788 638.216 93.199 638.9 92.7556C639.597 92.3123 640.401 92.0526 641.313 91.9766L641.427 93.6866C640.756 93.7753 640.186 93.9653 639.717 94.2566C639.248 94.5606 638.894 94.947 638.653 95.4156C638.412 95.897 638.292 96.4543 638.292 97.0876C638.292 97.721 638.368 98.253 638.52 98.6836C638.685 99.1143 638.919 99.4373 639.223 99.6526C639.54 99.8806 639.913 99.9946 640.344 99.9946C640.775 99.9946 641.148 99.8933 641.465 99.6906C641.794 99.5006 642.098 99.1333 642.377 98.5886C642.656 98.0566 642.941 97.265 643.232 96.2136C643.498 95.2763 643.789 94.5163 644.106 93.9336C644.423 93.3636 644.809 92.9456 645.265 92.6796C645.721 92.4263 646.285 92.2996 646.956 92.2996C647.716 92.2996 648.381 92.477 648.951 92.8316C649.534 93.199 649.983 93.7183 650.3 94.3896C650.629 95.061 650.794 95.859 650.794 96.7836C650.794 97.7083 650.604 98.5 650.224 99.1586C649.857 99.8173 649.35 100.337 648.704 100.717C648.058 101.109 647.323 101.356 646.5 101.458L646.386 99.7476C646.931 99.6716 647.412 99.5133 647.83 99.2726C648.261 99.032 648.596 98.7026 648.837 98.2846C649.078 97.8666 649.198 97.3536 649.198 96.7456C649.198 95.9096 648.995 95.2446 648.59 94.7506C648.197 94.2566 647.678 94.0096 647.032 94.0096C646.614 94.0096 646.266 94.0983 645.987 94.2756C645.721 94.4656 645.48 94.795 645.265 95.2636C645.062 95.7323 644.841 96.391 644.6 97.2396C644.296 98.3416 643.954 99.2156 643.574 99.8616C643.194 100.52 642.738 100.989 642.206 101.268C641.687 101.559 641.053 101.705 640.306 101.705C639.597 101.705 638.97 101.508 638.425 101.116C637.88 100.723 637.456 100.178 637.152 99.4816C636.848 98.785 636.696 97.9743 636.696 97.0496ZM637 104.053L638.596 104.053L638.596 107.416L648.894 107.416L648.894 104.053L650.49 104.053L650.49 112.413L648.894 112.413L648.894 109.05L638.596 109.05L638.596 112.413L637 112.413L637 104.053ZM636.696 119.588C636.696 118.638 636.956 117.789 637.475 117.042C638.007 116.307 638.792 115.724 639.831 115.294C640.882 114.863 642.181 114.648 643.726 114.648C645.183 114.648 646.437 114.844 647.488 115.237C648.539 115.642 649.35 116.218 649.92 116.966C650.503 117.713 650.794 118.612 650.794 119.664C650.794 120.487 650.61 121.215 650.243 121.849C649.876 122.495 649.363 123.033 648.704 123.464C648.058 123.894 647.311 124.205 646.462 124.395L646.348 122.685C647.184 122.469 647.868 122.108 648.4 121.602C648.932 121.108 649.198 120.462 649.198 119.664C649.198 118.967 648.983 118.372 648.552 117.878C648.134 117.384 647.513 117.004 646.69 116.738C645.879 116.484 644.891 116.358 643.726 116.358C642.573 116.358 641.592 116.491 640.781 116.757C639.97 117.023 639.35 117.403 638.919 117.897C638.501 118.403 638.292 119.018 638.292 119.74C638.292 120.386 638.457 120.937 638.786 121.393C639.128 121.861 639.597 122.229 640.192 122.495C640.8 122.761 641.49 122.906 642.263 122.932L642.263 119.702L643.821 119.702L643.821 124.452L637 124.452L637 122.932L640.192 122.856L640.04 123.312C639.394 123.134 638.818 122.887 638.311 122.571C637.804 122.267 637.405 121.868 637.114 121.374C636.835 120.892 636.696 120.297 636.696 119.588ZM637 126.648L650.49 126.648L650.49 128.966L638.862 133.754L650.49 133.754L650.49 135.388L637 135.388L637 133.07L648.628 128.282L637 128.282L637 126.648ZM637 138.421L650.49 138.421L650.49 146.629L648.894 146.629L648.894 140.055L644.543 140.055L644.543 146.401L642.985 146.401L642.985 140.055L638.596 140.055L638.596 146.781L637 146.781L637 138.421ZM637 149.434L650.49 149.434L650.49 153.538C650.49 154.956 650.129 156.077 649.407 156.901C648.698 157.724 647.716 158.136 646.462 158.136C645.829 158.136 645.265 157.99 644.771 157.699C644.29 157.407 643.91 157.034 643.631 156.578C643.352 156.122 643.194 155.653 643.156 155.172L643.384 155.096C643.333 155.995 643.118 156.666 642.738 157.11C642.358 157.566 641.737 157.832 640.876 157.908L637 158.25L637 156.616L640.667 156.293C641.085 156.255 641.421 156.153 641.674 155.989C641.94 155.837 642.13 155.59 642.244 155.248C642.371 154.918 642.434 154.462 642.434 153.88L642.434 151.068L637 151.068L637 149.434ZM644.03 151.068L644.03 153.538C644.03 154.475 644.239 155.191 644.657 155.685C645.088 156.179 645.689 156.426 646.462 156.426C647.247 156.426 647.849 156.179 648.267 155.685C648.685 155.191 648.894 154.475 648.894 153.538L648.894 151.068L644.03 151.068Z" fill="#1C1815"/>
<rect x="77" y="634" width="62.5" height="10" fill="#1C1815"/>
<rect x="140" y="634.5" width="61.5" height="9" stroke="#1C1815"/>
<rect x="202" y="634" width="62.5" height="10" fill="#1C1815"/>
<rect x="265" y="634.5" width="61.5" height="9" stroke="#1C1815"/>
<rect x="327" y="634" width="62.5" height="10" fill="#1C1815"/>
<rect x="390" y="634.5" width="61.5" height="9" stroke="#1C1815"/>
<rect x="452" y="634" width="62.5" height="10" fill="#1C1815"/>
<rect x="515" y="634.5" width="61.5" height="9" stroke="#1C1815"/>
<path d="M661.08 518.512C591.172 518.617 520.107 518.517 451.376 518.42C360.764 518.286 267.07 518.152 174.906 518.498C179.957 508.734 185.759 499.155 191.369 489.888C200.413 474.957 209.761 459.515 216.188 442.959C217.443 439.729 218.677 436.454 219.88 433.282C224.602 420.797 229.488 407.888 236.003 395.777C239.917 388.499 244.331 381.336 248.601 374.407C252.231 368.523 255.983 362.434 259.423 356.279C288.063 356.268 316.702 356.239 345.338 356.216C421.119 356.148 499.471 356.078 576.543 356.264C578.885 360.798 582.552 364.282 586.101 367.658C589.279 370.672 592.566 373.798 594.894 377.667C601.457 388.581 606.261 401.074 610.908 413.154C612.874 418.258 614.903 423.54 617.019 428.562C629.582 458.378 644.885 487.594 659.683 515.844L661.08 518.512ZM596.988 519.717C618.719 519.717 640.43 519.699 662.038 519.665H663L660.72 515.309C645.931 487.077 630.64 457.886 618.097 428.116C615.988 423.11 613.958 417.839 611.997 412.738C607.334 400.613 602.509 388.075 595.894 377.076C593.486 373.069 590.14 369.891 586.907 366.817C583.183 363.279 579.666 359.94 577.424 355.428L577.265 355.104H576.903C499.717 354.918 421.235 354.989 345.338 355.056C316.586 355.086 287.834 355.109 259.079 355.12H258.739L258.571 355.424C255.102 361.65 251.288 367.832 247.607 373.805C243.327 380.745 238.907 387.919 234.971 395.231C228.429 407.408 223.525 420.355 218.789 432.87C217.589 436.041 216.352 439.319 215.096 442.549C208.711 459.005 199.388 474.402 190.372 489.286C184.586 498.842 178.597 508.729 173.43 518.818L173 519.665L173.957 519.658C266.425 519.305 360.447 519.445 451.376 519.579C499.174 519.643 548.107 519.717 596.988 519.717Z" fill="#2A2425"/>
<path d="M328.549 521.816C361.317 521.816 390.962 515.055 416.256 508.133C454.574 497.648 488.001 493.575 524.646 494.941C543.6 495.649 562.825 497.136 581.419 498.578C604.682 500.382 628.734 502.243 652.492 502.596L652.508 501.397C628.786 501.043 604.752 499.183 581.506 497.383C562.902 495.944 543.663 494.449 524.687 493.741C487.926 492.375 454.392 496.453 415.956 506.976C386.295 515.091 350.626 522.985 311 519.951C291.197 518.432 271.391 514.599 252.236 510.892C229.901 506.566 206.798 502.097 183.534 501.263L183.493 502.463C206.671 503.292 229.726 507.754 252.02 512.075C271.207 515.787 291.044 519.627 310.914 521.143C316.881 521.605 322.767 521.816 328.549 521.816Z" fill="#2A2425"/>
<path d="M327.551 537.555C357.875 537.555 384.406 520.672 410.208 504.263L416.591 500.198C431.939 490.428 447.807 480.319 464.944 473.622C483.916 466.209 502.316 466.744 519.374 468.427C539.832 470.442 560.411 474.082 580.311 477.605C601.098 481.279 622.589 485.082 644.006 487.05L644.113 485.892C622.744 483.929 601.278 480.133 580.517 476.457C560.593 472.936 539.992 469.289 519.488 467.269C502.287 465.568 483.72 465.033 464.521 472.537C447.277 479.271 431.358 489.414 415.963 499.219L409.581 503.28C379.016 522.724 347.41 542.83 309.844 534.416C288.91 529.728 269.219 520.504 250.174 511.59C231.339 502.766 211.862 493.647 191.099 488.849L190.837 489.984C211.48 494.754 230.902 503.851 249.678 512.642C268.782 521.587 288.533 530.835 309.589 535.551C315.729 536.925 321.711 537.555 327.551 537.555Z" fill="#2A2425"/>
<path d="M327.447 528.111C339.113 528.111 350.947 524.479 363.288 517.156C378.39 508.191 392.235 494.893 404.448 483.154C406.707 480.989 408.924 478.856 411.103 476.796C412.359 475.61 413.614 474.419 414.87 473.226C441.434 448.02 468.9 421.956 508.467 425.782C533.228 428.177 557.556 435.459 581.084 442.501C596.768 447.196 612.986 452.051 629.186 455.414L629.424 454.271C613.273 450.917 597.078 446.07 581.419 441.381C557.837 434.32 533.454 427.02 508.579 424.618C468.483 420.742 440.821 446.993 414.068 472.379C412.812 473.57 411.556 474.763 410.301 475.948C408.12 478.01 405.9 480.14 403.642 482.314C379.496 505.511 349.448 534.385 313.44 525.15C289.604 519.036 268.536 504.92 248.164 491.261C234.64 482.203 220.661 472.836 206.028 465.914L205.527 466.973C220.082 473.851 234.027 483.195 247.509 492.235C267.968 505.942 289.121 520.122 313.151 526.284C317.902 527.497 322.663 528.111 327.447 528.111Z" fill="#2A2425"/>
<path d="M328.015 491.388C358.532 491.388 383.429 469.615 405.583 450.238C407.304 448.738 409.008 447.245 410.702 445.775C412.171 444.504 413.644 443.218 415.127 441.923C440.045 420.194 465.812 397.711 499.671 400.452C527.357 402.68 554.103 413.321 579.97 423.612C593.292 428.909 607.066 434.39 620.692 438.59L621.03 437.466C607.45 433.278 593.697 427.809 580.395 422.516C554.45 412.198 527.623 401.522 499.764 399.276C465.426 396.505 438.3 420.164 414.369 441.036C412.886 442.329 411.413 443.611 409.946 444.889C408.25 446.359 406.545 447.845 404.824 449.351C381.182 470.022 354.386 493.451 321.151 489.834C296.177 487.117 272.475 476.637 249.557 466.5C237.706 461.26 225.449 455.843 213.248 451.61L212.872 452.726C225.029 456.937 237.259 462.347 249.091 467.582C272.089 477.749 295.875 488.27 321.027 491.004C323.388 491.263 325.72 491.388 328.015 491.388Z" fill="#2A2425"/>
<path d="M324.284 450.467C359.942 450.467 385.506 431.448 410.247 413.04L412.786 411.153C438.3 392.133 464.684 372.469 497.612 376.642C525.992 380.236 552.76 393.324 578.646 405.977C589.982 411.519 601.702 417.249 613.238 421.998L613.686 420.932C602.184 416.201 590.479 410.479 579.161 404.947C553.189 392.25 526.332 379.118 497.759 375.497C464.361 371.266 437.787 391.074 412.087 410.231L409.548 412.12C384.504 430.751 358.608 450.024 322.304 449.3C298.159 448.817 273.968 444.603 250.573 440.522C240.338 438.737 229.763 436.895 219.338 435.386L219.167 436.526C229.577 438.028 240.148 439.869 250.369 441.655C273.808 445.743 298.046 449.968 322.281 450.451C322.951 450.463 323.621 450.467 324.284 450.467Z" fill="#2A2425"/>
<path d="M224.448 418.989C231.08 418.806 237.713 418.633 244.345 418.455C272.032 417.726 300.661 416.968 328.81 415.768C360.172 414.429 383.841 400.665 409.348 384.165L412.283 382.266C435.996 366.891 460.515 350.996 489.262 353.178C519.929 355.509 548.87 372.084 576.857 388.112C586.883 393.854 596.351 399.274 605.813 404.011L606.341 402.991C596.908 398.264 587.453 392.849 577.441 387.118C549.34 371.028 520.284 354.385 489.353 352.036C460.206 349.82 434.409 366.548 411.644 381.306L408.71 383.206C383.349 399.608 359.827 413.291 328.76 414.62C300.62 415.82 271.996 416.578 244.315 417.307C237.683 417.484 231.046 417.657 224.414 417.841L224.448 418.989Z" fill="#2A2425"/>
<path d="M230.843 405.349C236.021 404.745 241.196 404.121 246.36 403.503C274.034 400.174 302.652 396.734 331.115 395.949C360.276 395.147 383.229 382.689 410.208 366.487L412.548 365.078C436.148 350.884 462.894 334.794 491.914 337.565C521.636 340.405 549.412 357.398 576.269 373.837C584.678 378.979 592.617 383.839 600.527 388.211L601.094 387.202C593.206 382.844 585.279 377.991 576.884 372.85C549.91 356.347 522.019 339.277 492.026 336.417C462.618 333.618 435.697 349.804 411.945 364.09L409.602 365.5C382.774 381.616 359.958 394 331.083 394.795C302.566 395.587 273.921 399.026 246.221 402.356C241.054 402.978 235.886 403.595 230.708 404.202L230.843 405.349Z" fill="#2A2425"/>
<path d="M237.127 395.906C268.175 392.624 299.987 390.05 334.379 388.018C363.32 386.311 388.744 373.136 411.178 361.518C412.959 360.591 414.758 359.653 416.576 358.704C438.198 347.405 462.698 334.598 487.472 335.176C517.134 335.872 547.051 352.241 573.448 366.685C580.685 370.647 587.519 374.386 594.273 377.799L594.799 376.763C588.06 373.362 581.233 369.63 574.005 365.672C547.493 351.166 517.444 334.727 487.499 334.019C462.437 333.436 437.785 346.315 416.036 357.675C414.221 358.63 412.422 359.568 410.643 360.487C388.314 372.06 363.005 385.172 334.309 386.867C299.9 388.892 268.07 391.473 237.004 394.753L237.127 395.906Z" fill="#2A2425"/>
<path d="M241.294 386.463C268.939 384.195 298.318 382.422 336.553 380.716C363.727 379.509 389.65 369.439 412.523 360.559C414.031 359.975 415.544 359.384 417.065 358.793C441.027 349.438 465.805 339.773 491.301 340.439C519.55 341.175 546.972 352.768 573.491 363.975C578.987 366.302 584.67 368.702 590.165 370.918L590.602 369.837C585.116 367.629 579.438 365.228 573.945 362.908C547.326 351.653 519.8 340.022 491.333 339.279C465.598 338.607 440.709 348.319 416.64 357.708C415.122 358.306 413.608 358.897 412.1 359.481C389.312 368.331 363.483 378.356 336.503 379.563C298.249 381.266 268.86 383.036 241.201 385.303L241.294 386.463Z" fill="#2A2425"/>
<path d="M246.515 379.118C276.489 377.465 307.753 376.314 339.437 375.712C365.349 375.216 390.287 368.892 414.403 362.777C438.433 356.678 463.284 350.376 489.105 349.875C519.263 349.286 548.799 357.643 577.367 365.723C580.279 366.545 583.186 367.372 586.089 368.18L586.404 367.071C583.501 366.256 580.594 365.434 577.685 364.608C549.035 356.504 519.415 348.13 489.082 348.719C463.125 349.22 438.21 355.545 414.117 361.655C390.065 367.753 365.193 374.065 339.415 374.556C307.717 375.158 276.439 376.309 246.447 377.962L246.515 379.118Z" fill="#2A2425"/>
<path d="M250.678 371.773C264.314 371.333 278.135 371.067 291.499 370.813C332.142 370.039 374.17 369.234 415.491 363.191C438.097 359.88 464.444 356.337 491.032 356.226C522.68 356.071 553.463 360.566 582.027 365.432L582.208 364.213C553.598 359.341 522.762 354.852 491.028 354.988C464.369 355.106 437.977 358.647 415.334 361.964C374.079 368 332.088 368.801 291.479 369.575C278.11 369.828 264.284 370.095 250.645 370.54L250.678 371.773Z" fill="#2A2425"/>
<path d="M255.909 364.428C272.505 364.245 289.374 364.217 305.687 364.191C342.418 364.124 380.399 364.063 417.758 362.261C475.026 359.509 528.108 359.631 580.039 362.643L580.109 361.538C528.136 358.526 475.01 358.403 417.702 361.162C380.37 362.958 342.402 363.018 305.685 363.085C289.367 363.111 272.496 363.14 255.891 363.323L255.909 364.428Z" fill="#2A2425"/>
<path d="M209.735 519.717C213.774 510.639 218.564 504.943 224.119 498.344C225.299 496.936 226.52 495.487 227.776 493.946C235.855 484.092 239.164 470.261 242.092 458.064C242.706 455.493 243.289 453.065 243.909 450.677C244.951 446.673 245.945 442.583 246.906 438.625C250.482 423.95 254.18 408.771 260.812 394.933C264.119 388.028 268.076 381.324 271.903 374.84C275.394 368.93 279.003 362.817 282.122 356.548L281.085 356.034C277.984 362.263 274.387 368.358 270.907 374.249C267.068 380.756 263.097 387.483 259.77 394.431C253.086 408.377 249.372 423.613 245.785 438.354C244.824 442.305 243.828 446.395 242.792 450.383C242.169 452.782 241.583 455.215 240.964 457.792C238.071 469.874 234.791 483.564 226.886 493.217C225.63 494.747 224.409 496.196 223.233 497.597C217.627 504.26 212.784 510.019 208.675 519.242L209.735 519.717Z" fill="#2A2425"/>
<path d="M244.425 519.717C245.539 515.519 246.642 513.242 247.883 512.542C248.764 512.049 249.774 512.339 251.056 512.703C252.747 513.19 254.854 513.794 257.483 512.726C260.638 511.451 262.338 504.693 263.707 497.577C263.857 496.801 263.973 496.192 264.06 495.838C266.6 485.451 268.548 474.724 270.432 464.344C270.775 462.446 271.117 460.558 271.464 458.674C272.391 453.632 273.231 448.346 274.045 443.234C276.883 425.418 279.817 406.987 287.228 390.996C289.773 385.494 292.773 380.133 295.673 374.946C298.988 369.016 302.416 362.886 305.205 356.499L304.134 356.034C301.371 362.369 297.956 368.478 294.653 374.385C291.744 379.589 288.732 384.973 286.167 390.509C278.69 406.649 275.742 425.155 272.892 443.055C272.081 448.156 271.24 453.435 270.318 458.466C269.972 460.354 269.628 462.244 269.284 464.133C267.404 474.498 265.458 485.213 262.927 495.565C262.834 495.942 262.713 496.567 262.563 497.356C261.809 501.274 260.043 510.437 257.046 511.655C254.788 512.565 252.975 512.049 251.378 511.591C249.954 511.179 248.612 510.797 247.306 511.533C245.732 512.425 244.53 514.784 243.299 519.42L244.425 519.717Z" fill="#2A2425"/>
<path d="M286.641 532.308L287.091 531.655C293.326 522.633 294.531 507.894 295.594 494.89C295.954 490.462 296.298 486.277 296.815 482.651C297.878 475.226 298.882 467.661 299.853 460.342C301.999 444.191 304.216 427.488 307.199 411.215C309.521 398.545 314.433 387.943 319.631 376.719C322.632 370.244 325.733 363.547 328.289 356.419L327.175 356.034C324.637 363.11 321.546 369.782 318.558 376.235C313.326 387.531 308.386 398.195 306.038 411.012C303.048 427.308 300.829 444.023 298.684 460.19C297.712 467.504 296.706 475.07 295.645 482.489C295.122 486.148 294.78 490.35 294.415 494.796C293.394 507.315 292.238 521.46 286.588 530.291C285.534 528.595 285.088 526.368 284.655 524.205C284.011 520.989 283.344 517.66 280.618 516.121L280.062 515.807L277.925 520.267L278.993 520.768L280.564 517.485C282.389 518.904 282.929 521.594 283.497 524.433C284.018 527.033 284.556 529.724 286.142 531.689L286.641 532.308Z" fill="#2A2425"/>
<path d="M317.608 543.85L318.147 542.39C323.282 528.526 324.276 512.202 325.239 496.419C325.622 490.15 325.985 484.232 326.592 478.543C327.251 472.401 327.891 466.143 328.512 460.1C330.285 442.812 332.116 424.936 334.554 407.462C336.047 396.764 339.707 387.037 343.247 377.635C345.812 370.818 348.461 363.775 350.323 356.32L349.22 356.034C347.376 363.421 344.737 370.435 342.183 377.217C338.622 386.683 334.937 396.473 333.426 407.301C330.986 424.798 329.153 442.683 327.379 459.978C326.759 466.02 326.118 472.274 325.46 478.416C324.848 484.134 324.487 490.068 324.102 496.349C323.181 511.435 322.231 527.014 317.655 540.374C316.794 536.997 316.883 533.365 316.975 529.554C317.076 525.318 317.184 520.935 315.855 516.908L315.375 515.462L313.599 519.734L314.647 520.192L315.21 518.833C316.011 522.249 315.922 525.94 315.835 529.525C315.731 533.864 315.622 538.357 317.081 542.39L317.608 543.85Z" fill="#2A2425"/>
<path d="M347.756 542.801L348.472 539.245C351.601 523.723 352.53 507.356 353.429 491.533C353.761 485.655 354.107 479.578 354.557 473.689C355.061 467.161 355.542 460.62 356.023 454.086C357.251 437.407 358.522 420.159 360.132 403.236L360.245 402.055C361.101 393.01 361.908 384.458 365.352 376.189C365.869 374.947 366.383 373.748 366.887 372.58C369.122 367.375 371.235 362.459 372.357 356.243L371.242 356.034C370.144 362.109 368.153 366.749 365.847 372.115C365.341 373.289 364.827 374.486 364.308 375.737C360.795 384.167 359.979 392.799 359.114 401.944L359.003 403.118C357.391 420.059 356.12 437.314 354.892 453.998C354.411 460.534 353.93 467.068 353.426 473.603C352.974 479.498 352.628 485.578 352.295 491.462C351.504 505.421 350.688 519.792 348.359 533.606C348.448 531.564 348.641 529.477 348.834 527.42C349.151 524.018 349.481 520.496 349.335 517.198L349.156 513.169L347.556 519.833L348.219 520C348.162 522.401 347.929 524.886 347.703 527.309C347.328 531.326 346.94 535.477 347.353 539.192L347.756 542.801Z" fill="#2A2425"/>
<path d="M378.868 523.914L379.849 522.287C380.105 521.862 380.404 521.42 380.714 520.952C381.446 519.856 382.261 518.631 382.791 517.325C382.899 517.423 382.978 517.546 383.025 517.674C383.157 518.048 383.152 518.783 382.371 520.193L383.372 520.766C384.183 519.301 384.421 518.164 384.105 517.277C383.885 516.66 383.409 516.204 382.69 515.931L382.124 515.714L381.938 516.298C381.513 517.639 380.651 518.963 379.867 520.142C379.584 510.599 380.296 500.747 380.988 491.205C381.358 486.078 381.742 480.781 381.965 475.631C382.416 465.043 382.842 454.271 383.256 443.858C383.841 429.036 384.448 413.72 385.142 398.653C385.234 396.641 385.265 394.536 385.295 392.501C385.409 384.462 385.526 376.158 389.332 369.395C390.113 368.007 390.924 366.923 391.71 365.873C393.609 363.325 395.248 361.131 395.441 356.08L394.292 356.034C394.115 360.716 392.648 362.682 390.793 365.166C389.987 366.246 389.152 367.368 388.335 368.819C384.383 375.836 384.262 384.299 384.145 392.483C384.116 394.513 384.086 396.607 383.994 398.596C383.301 413.668 382.692 428.991 382.106 443.812C381.693 454.225 381.269 464.991 380.815 475.583C380.595 480.712 380.211 486 379.842 491.118C379.104 501.307 378.34 511.836 378.785 522.008L378.868 523.914Z" fill="#2A2425"/>
<path d="M419.129 519.717C419.25 513.733 417.25 509.328 415.132 504.669C413.95 502.062 412.729 499.368 411.882 496.332C410.614 491.801 410.717 486.868 410.816 482.091C410.843 480.699 410.875 479.264 410.868 477.872C410.808 464.836 410.708 451.58 410.609 438.767L410.453 418.048C410.365 406.341 410.276 394.636 410.215 382.922C410.21 382.181 410.085 380.787 409.922 379.029C409.501 374.398 408.509 363.549 410.503 362.534C411.311 362.121 412.655 362.273 413.953 362.425C415.756 362.627 417.617 362.843 418.732 361.704C419.712 360.7 419.833 358.902 419.114 356.034L417.886 356.295C418.486 358.691 418.457 360.254 417.797 360.927C417.12 361.618 415.657 361.448 414.108 361.276C412.608 361.101 411.057 360.92 409.892 361.518C407.39 362.795 407.885 370.578 408.666 379.127C408.826 380.863 408.949 382.233 408.954 382.929C409.016 394.641 409.104 406.348 409.193 418.053L409.348 438.772C409.447 451.592 409.548 464.843 409.607 477.879C409.614 479.253 409.585 480.687 409.555 482.068C409.454 486.92 409.35 491.939 410.661 496.623C411.532 499.74 412.771 502.474 413.97 505.115C416.034 509.658 417.984 513.959 417.87 519.692L419.129 519.717Z" fill="#2A2425"/>
<path d="M453.028 519.717L454.199 519.584C452.853 507.968 450.403 496.457 448.036 485.327C445.266 472.305 442.402 458.837 441.304 445.167C440.055 429.625 438.992 413.808 437.969 398.509C437.669 394.053 437.37 389.6 437.067 385.149C436.848 381.945 436.383 378.44 435.893 374.73C434.821 366.65 433.618 357.559 435.047 350.503C435.643 351.556 436.151 352.707 436.648 353.83C437.713 356.243 438.815 358.74 440.807 360.287L441.719 360.99L441.909 355.821L440.734 355.773L440.63 358.524C439.404 357.17 438.585 355.307 437.727 353.364C437.016 351.753 436.28 350.083 435.272 348.67L434.541 347.64L434.221 348.856C432.26 356.298 433.57 366.173 434.725 374.882C435.212 378.575 435.675 382.06 435.891 385.223C436.195 389.679 436.494 394.131 436.793 398.586C437.819 413.89 438.88 429.712 440.129 445.26C441.233 459.005 444.107 472.507 446.884 485.565C449.246 496.67 451.69 508.154 453.028 519.717Z" fill="#2A2425"/>
<path d="M486.657 519.717L487.775 519.536C484.431 498.038 480.423 476.306 476.548 455.297C469.834 418.894 462.899 381.293 459.19 343.636C459.853 345.798 460.37 348.049 460.873 350.259C461.56 353.26 462.272 356.369 463.346 359.247L464.761 363.046L464.176 355.731L463.414 355.795C462.866 353.887 462.415 351.915 461.976 349.991C461.134 346.316 460.263 342.518 458.73 339.14L457.347 336.098L457.654 339.442C461.248 378.59 468.462 417.696 475.436 455.513C479.312 476.515 483.317 498.236 486.657 519.717Z" fill="#2A2425"/>
<path d="M521.252 519.717L522.4 519.462C519.894 508.559 517.247 497.498 514.689 486.796C509.949 466.99 505.051 446.511 500.853 426.259C498.507 414.942 496.403 403.343 494.37 392.129C490.954 373.31 487.422 353.85 482.634 335.049L481.48 335.241C481.856 339.543 482.662 343.882 483.442 348.076C483.963 350.876 484.498 353.746 484.904 356.616L484.493 356.72L485.301 359.779L486.456 359.571C486.141 356.568 485.638 353.554 485.101 350.593C488.163 364.506 490.718 378.591 493.213 392.337C495.249 403.559 497.353 415.162 499.701 426.489C503.903 446.759 508.804 467.25 513.543 487.063C516.102 497.758 518.749 508.819 521.252 519.717Z" fill="#2A2425"/>
<path d="M556.938 519.717L558.075 519.396L556.668 514.566C548.472 486.406 539.999 457.291 532.561 428.473C529.349 416.031 526.415 403.291 523.576 390.978C522.681 387.09 521.786 383.209 520.882 379.323C520.008 375.569 519.259 371.765 518.465 367.724C516.431 357.387 514.33 346.7 510.043 337.428L509.427 336.098L508.947 337.487C507.771 340.879 508.295 344.776 508.8 348.541C509.146 351.123 509.501 353.775 509.312 356.256L508.79 355.09L507.711 355.564L509.796 360.226L510.181 358.478C510.892 355.261 510.423 351.769 509.969 348.388C509.545 345.213 509.139 342.183 509.651 339.445C513.429 348.232 515.398 358.243 517.305 367.948C518.066 371.818 518.853 375.815 519.732 379.585C520.636 383.466 521.531 387.354 522.425 391.236C525.267 403.56 528.202 416.306 531.417 428.758C538.857 457.593 547.335 486.721 555.534 514.887L556.938 519.717Z" fill="#2A2425"/>
<path d="M591.602 519.717L592.7 519.321C580.191 484.716 571.198 458.1 563.546 433.008C560.109 421.738 556.93 410.186 553.855 399.016C552.716 394.882 551.579 390.745 550.425 386.611C549.86 384.589 549.277 381.731 548.6 378.428C546.408 367.72 543.406 353.05 537.301 348.059L536.797 347.64L536.442 348.186C535.329 349.891 534.969 351.816 534.621 353.675C534.313 355.31 534.021 356.874 533.249 358.219L531.797 355.808L530.794 356.401L533.164 360.341L533.686 359.664C535.008 357.943 535.396 355.878 535.767 353.886C536.068 352.291 536.353 350.772 537.075 349.404C542.522 354.551 545.364 368.44 547.456 378.658C548.137 381.984 548.725 384.856 549.302 386.926C550.453 391.051 551.592 395.186 552.73 399.322C555.806 410.499 558.987 422.062 562.429 433.343C570.089 458.453 579.086 485.094 591.602 519.717Z" fill="#2A2425"/>
<path d="M626.268 519.717L627.325 519.247C610.478 481.205 597.179 447.514 586.675 416.237C585.448 412.594 584.24 408.938 583.03 405.284C580.726 398.322 578.341 391.123 575.88 384.08C575.32 382.481 574.794 380.657 574.238 378.722C572.676 373.294 570.903 367.138 567.583 363.5C565.605 361.335 564.876 360.957 563.67 360.332C563.256 360.118 562.786 359.873 562.177 359.509C560.779 358.67 559.562 359.253 558.586 359.728C557.85 360.084 557.38 360.285 556.972 360.1C556.299 359.787 555.635 358.425 554.996 356.034L553.878 356.335C554.641 359.186 555.447 360.674 556.488 361.154C557.412 361.577 558.301 361.15 559.088 360.772C559.962 360.349 560.718 359.984 561.585 360.505C562.224 360.887 562.709 361.136 563.139 361.362C564.268 361.948 564.891 362.267 566.73 364.283C569.866 367.717 571.598 373.733 573.127 379.046C573.687 380.991 574.218 382.829 574.787 384.463C577.248 391.499 579.629 398.694 581.932 405.649C583.142 409.302 584.353 412.959 585.577 416.608C596.096 447.912 609.406 481.639 626.268 519.717Z" fill="#2A2425"/>
<circle cx="103.006" cy="178.006" r="72.8361" transform="rotate(-135 103.006 178.006)" fill="url(#paint0_linear_77_315)"/>
<path d="M532.164 123.128C532.02 124.232 531.912 125.468 531.84 126.836C531.792 128.228 531.768 129.632 531.768 131.048C531.792 132.488 531.84 133.868 531.912 135.188C532.008 136.508 532.104 137.648 532.2 138.608L527.556 138.608C527.46 137.504 527.376 136.292 527.304 134.972C527.256 133.652 527.232 132.296 527.232 130.904C527.232 129.512 527.256 128.144 527.304 126.8C527.376 125.48 527.46 124.256 527.556 123.128L532.164 123.128ZM516.792 126.008C516.192 125.864 515.652 125.756 515.172 125.684C514.716 125.612 514.248 125.576 513.768 125.576C513.384 125.576 513.024 125.672 512.688 125.864C512.376 126.056 512.1 126.344 511.86 126.728C511.644 127.136 511.476 127.652 511.356 128.276C511.26 128.924 511.212 129.704 511.212 130.616C511.212 132.224 511.284 133.736 511.428 135.152C511.596 136.568 511.836 138.068 512.148 139.652L507.288 139.724C507.072 138.572 506.904 137.24 506.784 135.728C506.664 134.24 506.604 132.476 506.604 130.436C506.604 127.34 507.12 125.036 508.152 123.524C509.208 122.012 510.66 121.256 512.508 121.256C513.204 121.256 513.924 121.304 514.668 121.4C515.436 121.52 516.276 121.676 517.188 121.868L516.792 126.008ZM534.576 117.584C534.336 117.488 534 117.38 533.568 117.26C533.136 117.14 532.716 117.02 532.308 116.9C531.9 116.804 531.588 116.732 531.372 116.684C530.868 116.612 530.208 116.492 529.392 116.324C528.6 116.18 527.7 116.024 526.692 115.856C525.708 115.712 524.7 115.568 523.668 115.424C522.636 115.28 521.64 115.16 520.68 115.064C519.72 114.992 518.88 114.956 518.16 114.956C517.824 114.956 517.44 114.956 517.008 114.956C516.576 114.98 516.18 115.028 515.82 115.1C516.228 115.268 516.636 115.448 517.044 115.64C517.452 115.832 517.86 116.024 518.268 116.216C518.7 116.408 519.108 116.576 519.492 116.72L517.728 118.952C516.744 118.616 515.688 118.268 514.56 117.908C513.432 117.572 512.364 117.26 511.356 116.972C510.372 116.708 509.556 116.504 508.908 116.36C508.644 116.312 508.344 116.264 508.008 116.216C507.672 116.192 507.408 116.18 507.216 116.18C507.024 116.18 506.796 116.18 506.532 116.18C506.244 116.204 505.98 116.228 505.74 116.252L505.452 112.076C506.7 111.716 508.356 111.392 510.42 111.104C512.508 110.816 514.776 110.672 517.224 110.672C518.568 110.672 519.936 110.732 521.328 110.852C522.72 110.972 524.052 111.116 525.324 111.284C526.62 111.452 527.796 111.608 528.852 111.752C529.908 111.92 530.784 112.064 531.48 112.184C531.984 112.232 532.548 112.292 533.172 112.364C533.82 112.46 534.432 112.52 535.008 112.544L534.576 117.584ZM526.728 144.944C526.848 145.616 527.016 146.36 527.232 147.176C527.448 147.992 527.64 148.724 527.808 149.372C528.024 150.068 528.324 151.004 528.708 152.18C529.092 153.38 529.476 154.7 529.86 156.14C530.244 157.58 530.568 159.044 530.832 160.532C531.12 162.044 531.264 163.448 531.264 164.744C531.264 166.928 530.856 168.896 530.04 170.648C529.224 172.4 528.048 173.792 526.512 174.824C524.976 175.856 523.092 176.372 520.86 176.372C519.228 176.372 517.716 176.072 516.324 175.472C514.932 174.872 513.684 173.984 512.58 172.808C511.476 171.656 510.516 170.252 509.7 168.596C508.884 166.94 508.224 165.044 507.72 162.908C507.24 160.796 506.94 158.468 506.82 155.924L511.608 153.836C511.656 156.284 511.872 158.552 512.256 160.64C512.664 162.752 513.24 164.6 513.984 166.184C514.752 167.768 515.712 169.004 516.864 169.892C518.016 170.78 519.372 171.224 520.932 171.224C522.06 171.224 523.068 170.972 523.956 170.468C524.868 169.964 525.588 169.208 526.116 168.2C526.644 167.216 526.908 166.004 526.908 164.564C526.908 163.508 526.776 162.344 526.512 161.072C526.272 159.8 525.948 158.492 525.54 157.148C525.132 155.828 524.688 154.532 524.208 153.26C523.752 151.988 523.296 150.812 522.84 149.732C522.384 148.652 522 147.74 521.688 146.996L526.728 144.944ZM532.74 188.36C532.308 188.264 531.816 188.18 531.264 188.108C530.712 188.06 530.172 188.012 529.644 187.964C529.116 187.94 528.684 187.928 528.348 187.928C527.556 187.904 526.74 187.892 525.9 187.892C525.06 187.916 524.196 187.94 523.308 187.964C522.444 188.012 521.58 188.072 520.716 188.144C518.988 188.312 517.464 188.552 516.144 188.864C514.824 189.176 513.792 189.584 513.048 190.088C512.328 190.592 511.968 191.228 511.968 191.996C511.968 192.404 512.196 192.8 512.652 193.184C513.108 193.592 513.696 193.952 514.416 194.264C515.16 194.6 515.94 194.888 516.756 195.128C517.572 195.392 518.34 195.62 519.06 195.812L514.668 199.412C512.58 198.62 510.912 197.828 509.664 197.036C508.44 196.268 507.552 195.464 507 194.624C506.472 193.784 506.208 192.872 506.208 191.888C506.208 190.592 506.64 189.356 507.504 188.18C508.368 187.028 509.76 186.044 511.68 185.228C513.624 184.412 516.204 183.836 519.42 183.5C520.524 183.38 521.688 183.284 522.912 183.212C524.136 183.164 525.3 183.128 526.404 183.104C527.508 183.104 528.42 183.104 529.14 183.104C529.644 183.104 530.244 183.08 530.94 183.032C531.636 182.984 532.26 182.912 532.812 182.816L532.74 188.36ZM531.912 206.36C531.096 207.032 530.1 207.68 528.924 208.304C527.748 208.928 526.488 209.504 525.144 210.032C523.8 210.56 522.42 211.028 521.004 211.436C519.612 211.844 518.244 212.168 516.9 212.408C515.58 212.672 514.368 212.84 513.264 212.912L511.428 208.16C512.892 208.04 514.488 207.824 516.216 207.512C517.944 207.2 519.684 206.78 521.436 206.252C523.188 205.724 524.844 205.088 526.404 204.344C527.964 203.624 529.308 202.772 530.436 201.788L531.912 206.36ZM531.768 216.466C531.792 217.186 531.816 217.87 531.84 218.518C531.888 219.166 531.924 219.67 531.948 220.03C532.02 220.774 532.104 221.686 532.2 222.766C532.296 223.846 532.404 225.058 532.524 226.402C532.644 227.77 532.764 229.222 532.884 230.758C533.028 232.294 533.172 233.89 533.316 235.546C533.412 236.794 533.496 238.042 533.568 239.29C533.664 240.538 533.736 241.714 533.784 242.818C533.856 243.946 533.904 244.918 533.928 245.734L529.32 245.77C529.32 245.122 529.308 244.378 529.284 243.538C529.26 242.698 529.212 241.858 529.14 241.018C529.092 240.202 528.996 239.47 528.852 238.822C528.564 237.742 528.072 236.734 527.376 235.798C526.704 234.886 525.9 234.082 524.964 233.386C524.028 232.69 523.02 232.15 521.94 231.766C520.884 231.406 519.816 231.226 518.736 231.226C517.56 231.226 516.516 231.43 515.604 231.838C514.716 232.246 513.948 232.81 513.3 233.53C512.676 234.274 512.148 235.138 511.716 236.122C511.308 237.106 510.996 238.162 510.78 239.29C510.564 240.442 510.42 241.63 510.348 242.854L505.416 241.162C505.512 239.65 505.752 238.174 506.136 236.734C506.52 235.318 507.048 233.986 507.72 232.738C508.392 231.514 509.208 230.434 510.168 229.498C511.152 228.562 512.268 227.83 513.516 227.302C514.788 226.774 516.204 226.51 517.764 226.51C519.516 226.51 521.112 226.786 522.552 227.338C523.992 227.89 525.252 228.574 526.332 229.39C527.436 230.206 528.288 231.022 528.888 231.838C528.816 231.166 528.72 230.35 528.6 229.39C528.504 228.454 528.384 227.434 528.24 226.33C528.12 225.25 527.988 224.146 527.844 223.018C527.7 221.89 527.532 220.798 527.34 219.742C527.172 218.71 527.004 217.774 526.836 216.934L531.768 216.466Z" fill="#1C1815"/>
<mask id="mask0_77_315" style="mask-type:alpha" maskUnits="userSpaceOnUse" x="77" y="0" width="501" height="65">
<rect x="77" width="501" height="65" fill="#D9D9D9"/>
</mask>
<g mask="url(#mask0_77_315)">
<path d="M87.8916 0L22.8916 65" stroke="#F1E6D4"/>
<path d="M102.892 0L37.8916 65" stroke="#F1E6D4"/>
<path d="M117.892 0L52.8916 65" stroke="#F1E6D4"/>
<path d="M132.892 0L67.8916 65" stroke="#F1E6D4"/>
<path d="M147.892 0L82.8916 65" stroke="#F1E6D4"/>
<path d="M162.892 0L97.8916 65" stroke="#F1E6D4"/>
<path d="M177.892 0L112.892 65" stroke="#F1E6D4"/>
<path d="M192.892 0L127.892 65" stroke="#F1E6D4"/>
<path d="M207.892 0L142.892 65" stroke="#F1E6D4"/>
<path d="M222.892 0L157.892 65" stroke="#F1E6D4"/>
<path d="M237.892 0L172.892 65" stroke="#F1E6D4"/>
<path d="M252.892 0L187.892 65" stroke="#F1E6D4"/>
<path d="M267.892 0L202.892 65" stroke="#F1E6D4"/>
<path d="M282.892 0L217.892 65" stroke="#F1E6D4"/>
<path d="M297.892 0L232.892 65" stroke="#F1E6D4"/>
<path d="M312.892 0L247.892 65" stroke="#F1E6D4"/>
<path d="M327.892 0L262.892 65" stroke="#F1E6D4"/>
<path d="M342.892 0L277.892 65" stroke="#F1E6D4"/>
<path d="M357.892 0L292.892 65" stroke="#F1E6D4"/>
<path d="M372.892 0L307.892 65" stroke="#F1E6D4"/>
<path d="M387.892 0L322.892 65" stroke="#F1E6D4"/>
<path d="M402.892 0L337.892 65" stroke="#F1E6D4"/>
<path d="M417.892 0L352.892 65" stroke="#F1E6D4"/>
<path d="M432.892 0L367.892 65" stroke="#F1E6D4"/>
<path d="M447.892 0L382.892 65" stroke="#F1E6D4"/>
<path d="M462.892 0L397.892 65" stroke="#F1E6D4"/>
<path d="M477.892 0L412.892 65" stroke="#F1E6D4"/>
<path d="M492.892 0L427.892 65" stroke="#F1E6D4"/>
<path d="M507.892 0L442.892 65" stroke="#F1E6D4"/>
<path d="M522.892 0L457.892 65" stroke="#F1E6D4"/>
<path d="M537.892 0L472.892 65" stroke="#F1E6D4"/>
<path d="M552.892 0L487.892 65" stroke="#F1E6D4"/>
<path d="M567.892 0L502.892 65" stroke="#F1E6D4"/>
<path d="M582.892 0L517.892 65" stroke="#F1E6D4"/>
<path d="M597.892 0L532.892 65" stroke="#F1E6D4"/>
<path d="M612.892 0L547.892 65" stroke="#F1E6D4"/>
<path d="M627.892 0L562.892 65" stroke="#F1E6D4"/>
<path d="M642.892 0L577.892 65" stroke="#F1E6D4"/>
</g>
<defs>
<linearGradient id="paint0_linear_77_315" x1="103.006" y1="63.4462" x2="103.006" y2="247.02" gradientUnits="userSpaceOnUse">
<stop stop-color="#F1E6D4"/>
<stop offset="1" stop-color="#FE8F21"/>
</linearGradient>
</defs>
</svg>
