<svg width="663" height="644" viewBox="0 0 663 644" fill="none" xmlns="http://www.w3.org/2000/svg">
<path d="M578 600L141 600C105.654 600 77 571.346 77 536L77 2.77268e-05L578 7.15256e-05L578 600Z" fill="#FE8F21"/>
<path d="M636.696 5.7C636.696 4.28133 637.146 3.16667 638.045 2.356C638.944 1.54533 640.167 1.14 641.712 1.14L650.49 1.14L650.49 2.774L641.712 2.774C640.597 2.774 639.749 3.021 639.166 3.515C638.583 4.02167 638.292 4.75 638.292 5.7C638.292 6.65 638.583 7.372 639.166 7.866C639.749 8.37267 640.597 8.626 641.712 8.626L650.49 8.626L650.49 10.26L641.712 10.26C640.167 10.26 638.944 9.85467 638.045 9.044C637.146 8.23333 636.696 7.11867 636.696 5.7ZM637 12.9126L638.596 12.9126L638.596 16.2756L648.894 16.2756L648.894 12.9126L650.49 12.9126L650.49 21.2726L648.894 21.2726L648.894 17.9096L638.596 17.9096L638.596 21.2726L637 21.2726L637 12.9126ZM634.91 24.8372L651.25 30.6132L651.25 32.1332L634.91 26.3572L634.91 24.8372ZM636.696 39.8777C636.696 38.4591 637.146 37.3444 638.045 36.5337C638.944 35.7231 640.167 35.3177 641.712 35.3177L650.49 35.3177L650.49 36.9517L641.712 36.9517C640.597 36.9517 639.749 37.1987 639.166 37.6927C638.583 38.1994 638.292 38.9277 638.292 39.8777C638.292 40.8277 638.583 41.5497 639.166 42.0437C639.749 42.5504 640.597 42.8037 641.712 42.8037L650.49 42.8037L650.49 44.4377L641.712 44.4377C640.167 44.4377 638.944 44.0324 638.045 43.2217C637.146 42.4111 636.696 41.2964 636.696 39.8777ZM637 46.5203L643.783 50.2443L650.49 46.5963L650.49 48.4963L645.075 51.2893L650.49 54.0823L650.49 55.9443L643.764 52.2963L637 56.0203L637 54.1203L642.491 51.2513L637 48.3823L637 46.5203ZM637 70.0655L650.49 70.0655L650.49 73.2575C650.49 74.4228 650.224 75.4361 649.692 76.2975C649.173 77.1715 648.406 77.8428 647.393 78.3115C646.392 78.7928 645.17 79.0335 643.726 79.0335C642.282 79.0335 641.06 78.7928 640.059 78.3115C639.058 77.8428 638.298 77.1715 637.779 76.2975C637.26 75.4361 637 74.4228 637 73.2575L637 70.0655ZM638.596 71.6995L638.596 73.1625C638.596 74.4798 639.02 75.4995 639.869 76.2215C640.73 76.9561 642.016 77.3235 643.726 77.3235C645.436 77.3235 646.722 76.9561 647.583 76.2215C648.457 75.4995 648.894 74.4798 648.894 73.1625L648.894 71.6995L638.596 71.6995ZM637 81.458L650.49 81.458L650.49 89.666L648.894 89.666L648.894 83.092L644.543 83.092L644.543 89.438L642.985 89.438L642.985 83.092L638.596 83.092L638.596 89.818L637 89.818L637 81.458ZM636.696 97.0496C636.696 96.0996 636.892 95.2573 637.285 94.5226C637.678 93.788 638.216 93.199 638.9 92.7556C639.597 92.3123 640.401 92.0526 641.313 91.9766L641.427 93.6866C640.756 93.7753 640.186 93.9653 639.717 94.2566C639.248 94.5606 638.894 94.947 638.653 95.4156C638.412 95.897 638.292 96.4543 638.292 97.0876C638.292 97.721 638.368 98.253 638.52 98.6836C638.685 99.1143 638.919 99.4373 639.223 99.6526C639.54 99.8806 639.913 99.9946 640.344 99.9946C640.775 99.9946 641.148 99.8933 641.465 99.6906C641.794 99.5006 642.098 99.1333 642.377 98.5886C642.656 98.0566 642.941 97.265 643.232 96.2136C643.498 95.2763 643.789 94.5163 644.106 93.9336C644.423 93.3636 644.809 92.9456 645.265 92.6796C645.721 92.4263 646.285 92.2996 646.956 92.2996C647.716 92.2996 648.381 92.477 648.951 92.8316C649.534 93.199 649.983 93.7183 650.3 94.3896C650.629 95.061 650.794 95.859 650.794 96.7836C650.794 97.7083 650.604 98.5 650.224 99.1586C649.857 99.8173 649.35 100.337 648.704 100.717C648.058 101.109 647.323 101.356 646.5 101.458L646.386 99.7476C646.931 99.6716 647.412 99.5133 647.83 99.2726C648.261 99.032 648.596 98.7026 648.837 98.2846C649.078 97.8666 649.198 97.3536 649.198 96.7456C649.198 95.9096 648.995 95.2446 648.59 94.7506C648.197 94.2566 647.678 94.0096 647.032 94.0096C646.614 94.0096 646.266 94.0983 645.987 94.2756C645.721 94.4656 645.48 94.795 645.265 95.2636C645.062 95.7323 644.841 96.391 644.6 97.2396C644.296 98.3416 643.954 99.2156 643.574 99.8616C643.194 100.52 642.738 100.989 642.206 101.268C641.687 101.559 641.053 101.705 640.306 101.705C639.597 101.705 638.97 101.508 638.425 101.116C637.88 100.723 637.456 100.178 637.152 99.4816C636.848 98.785 636.696 97.9743 636.696 97.0496ZM637 104.053L638.596 104.053L638.596 107.416L648.894 107.416L648.894 104.053L650.49 104.053L650.49 112.413L648.894 112.413L648.894 109.05L638.596 109.05L638.596 112.413L637 112.413L637 104.053ZM636.696 119.588C636.696 118.638 636.956 117.789 637.475 117.042C638.007 116.307 638.792 115.724 639.831 115.294C640.882 114.863 642.181 114.648 643.726 114.648C645.183 114.648 646.437 114.844 647.488 115.237C648.539 115.642 649.35 116.218 649.92 116.966C650.503 117.713 650.794 118.612 650.794 119.664C650.794 120.487 650.61 121.215 650.243 121.849C649.876 122.495 649.363 123.033 648.704 123.464C648.058 123.894 647.311 124.205 646.462 124.395L646.348 122.685C647.184 122.469 647.868 122.108 648.4 121.602C648.932 121.108 649.198 120.462 649.198 119.664C649.198 118.967 648.983 118.372 648.552 117.878C648.134 117.384 647.513 117.004 646.69 116.738C645.879 116.484 644.891 116.358 643.726 116.358C642.573 116.358 641.592 116.491 640.781 116.757C639.97 117.023 639.35 117.403 638.919 117.897C638.501 118.403 638.292 119.018 638.292 119.74C638.292 120.386 638.457 120.937 638.786 121.393C639.128 121.861 639.597 122.229 640.192 122.495C640.8 122.761 641.49 122.906 642.263 122.932L642.263 119.702L643.821 119.702L643.821 124.452L637 124.452L637 122.932L640.192 122.856L640.04 123.312C639.394 123.134 638.818 122.887 638.311 122.571C637.804 122.267 637.405 121.868 637.114 121.374C636.835 120.892 636.696 120.297 636.696 119.588ZM637 126.648L650.49 126.648L650.49 128.966L638.862 133.754L650.49 133.754L650.49 135.388L637 135.388L637 133.07L648.628 128.282L637 128.282L637 126.648ZM637 138.421L650.49 138.421L650.49 146.629L648.894 146.629L648.894 140.055L644.543 140.055L644.543 146.401L642.985 146.401L642.985 140.055L638.596 140.055L638.596 146.781L637 146.781L637 138.421ZM637 149.434L650.49 149.434L650.49 153.538C650.49 154.956 650.129 156.077 649.407 156.901C648.698 157.724 647.716 158.136 646.462 158.136C645.829 158.136 645.265 157.99 644.771 157.699C644.29 157.407 643.91 157.034 643.631 156.578C643.352 156.122 643.194 155.653 643.156 155.172L643.384 155.096C643.333 155.995 643.118 156.666 642.738 157.11C642.358 157.566 641.737 157.832 640.876 157.908L637 158.25L637 156.616L640.667 156.293C641.085 156.255 641.421 156.153 641.674 155.989C641.94 155.837 642.13 155.59 642.244 155.248C642.371 154.918 642.434 154.462 642.434 153.88L642.434 151.068L637 151.068L637 149.434ZM644.03 151.068L644.03 153.538C644.03 154.475 644.239 155.191 644.657 155.685C645.088 156.179 645.689 156.426 646.462 156.426C647.247 156.426 647.849 156.179 648.267 155.685C648.685 155.191 648.894 154.475 648.894 153.538L648.894 151.068L644.03 151.068Z" fill="#1C1815"/>
<rect x="77" y="634" width="62.5" height="10" fill="#1C1815"/>
<rect x="140" y="634.5" width="61.5" height="9" stroke="#1C1815"/>
<rect x="202" y="634" width="62.5" height="10" fill="#1C1815"/>
<rect x="265" y="634.5" width="61.5" height="9" stroke="#1C1815"/>
<rect x="327" y="634" width="62.5" height="10" fill="#1C1815"/>
<rect x="390" y="634.5" width="61.5" height="9" stroke="#1C1815"/>
<rect x="452" y="634" width="62.5" height="10" fill="#1C1815"/>
<rect x="515" y="634.5" width="61.5" height="9" stroke="#1C1815"/>
<path d="M661.08 542.512C591.172 542.617 520.107 542.517 451.376 542.42C360.764 542.286 267.07 542.152 174.906 542.498C179.957 532.734 185.759 523.155 191.369 513.888C200.413 498.957 209.761 483.515 216.188 466.959C217.443 463.729 218.677 460.454 219.88 457.282C224.602 444.797 229.488 431.888 236.003 419.777C239.917 412.499 244.331 405.336 248.601 398.407C252.231 392.523 255.983 386.434 259.423 380.279C288.063 380.268 316.702 380.239 345.338 380.216C421.119 380.148 499.471 380.078 576.543 380.264C578.885 384.798 582.552 388.282 586.101 391.658C589.279 394.672 592.566 397.798 594.894 401.667C601.457 412.581 606.261 425.074 610.908 437.154C612.874 442.258 614.903 447.54 617.019 452.562C629.582 482.378 644.885 511.594 659.683 539.844L661.08 542.512ZM596.988 543.717C618.719 543.717 640.43 543.699 662.038 543.665H663L660.72 539.309C645.931 511.077 630.64 481.886 618.097 452.116C615.988 447.11 613.958 441.839 611.997 436.738C607.334 424.613 602.509 412.075 595.894 401.076C593.486 397.069 590.14 393.891 586.907 390.817C583.183 387.279 579.666 383.94 577.424 379.428L577.265 379.104H576.903C499.717 378.918 421.235 378.989 345.338 379.056C316.586 379.086 287.834 379.109 259.079 379.12H258.739L258.571 379.424C255.102 385.65 251.288 391.832 247.607 397.805C243.327 404.745 238.907 411.919 234.971 419.231C228.429 431.408 223.525 444.355 218.789 456.87C217.589 460.041 216.352 463.319 215.096 466.549C208.711 483.005 199.388 498.402 190.372 513.286C184.585 522.842 178.597 532.729 173.43 542.818L173 543.665L173.957 543.658C266.425 543.305 360.447 543.445 451.376 543.579C499.174 543.642 548.107 543.717 596.988 543.717Z" fill="#2A2425"/>
<path d="M328.549 545.816C361.317 545.816 390.962 539.055 416.256 532.133C454.574 521.648 488.001 517.575 524.646 518.941C543.6 519.649 562.825 521.136 581.419 522.578C604.682 524.382 628.734 526.243 652.492 526.596L652.508 525.397C628.786 525.043 604.752 523.183 581.506 521.383C562.902 519.944 543.663 518.449 524.687 517.741C487.926 516.375 454.392 520.453 415.956 530.976C386.295 539.091 350.626 546.985 311 543.951C291.197 542.432 271.391 538.599 252.236 534.892C229.901 530.566 206.798 526.097 183.534 525.263L183.493 526.463C206.671 527.292 229.726 531.754 252.02 536.075C271.207 539.787 291.044 543.627 310.914 545.143C316.881 545.605 322.767 545.816 328.549 545.816Z" fill="#2A2425"/>
<path d="M327.551 561.555C357.875 561.555 384.406 544.672 410.208 528.263L416.591 524.198C431.939 514.428 447.807 504.319 464.944 497.622C483.916 490.209 502.316 490.744 519.374 492.427C539.832 494.442 560.411 498.082 580.311 501.605C601.098 505.279 622.589 509.082 644.006 511.05L644.113 509.892C622.744 507.929 601.278 504.133 580.517 500.457C560.593 496.936 539.992 493.289 519.488 491.269C502.287 489.568 483.72 489.033 464.521 496.537C447.277 503.271 431.358 513.414 415.963 523.219L409.581 527.28C379.016 546.724 347.41 566.83 309.844 558.416C288.91 553.728 269.219 544.504 250.174 535.59C231.339 526.766 211.862 517.647 191.099 512.849L190.837 513.984C211.48 518.754 230.902 527.851 249.678 536.642C268.782 545.587 288.533 554.835 309.589 559.551C315.729 560.925 321.711 561.555 327.551 561.555Z" fill="#2A2425"/>
<path d="M326.572 567.85C356.573 567.85 382.547 543.838 403.974 524.037C406.452 521.743 408.792 519.583 411.125 517.464C412.597 516.128 414.071 514.784 415.548 513.441C430.041 500.228 445.031 486.565 462.237 476.797C477.349 468.216 491.885 465.696 512.411 468.089C535.501 470.787 558.437 476.519 580.617 482.067C598.851 486.622 617.709 491.335 636.582 494.352L636.77 493.205C617.944 490.199 599.114 485.493 580.902 480.942C558.686 475.39 535.712 469.645 512.548 466.942C491.75 464.516 477.006 467.076 461.658 475.79C444.335 485.626 429.3 499.332 414.757 512.59C413.281 513.934 411.809 515.277 410.335 516.614C408 518.733 405.657 520.9 403.178 523.191C378.713 545.801 348.268 573.941 312.957 564.978C288.969 558.887 268.133 544.387 247.98 530.371C232.361 519.497 216.208 508.259 198.632 500.947L198.183 502.012C215.635 509.279 231.74 520.481 247.31 531.314C267.549 545.396 288.475 559.957 312.667 566.095C317.392 567.298 322.03 567.85 326.572 567.85Z" fill="#2A2425"/>
<path d="M327.447 552.111C339.113 552.111 350.947 548.479 363.288 541.157C378.39 532.191 392.235 518.893 404.448 507.154C406.707 504.989 408.924 502.856 411.103 500.796C412.359 499.61 413.614 498.419 414.87 497.226C441.434 472.02 468.9 445.956 508.467 449.782C533.228 452.177 557.556 459.459 581.084 466.501C596.768 471.196 612.986 476.051 629.186 479.414L629.424 478.271C613.273 474.917 597.078 470.07 581.419 465.381C557.837 458.321 533.454 451.02 508.579 448.618C468.483 444.742 440.821 470.993 414.068 496.379C412.812 497.57 411.556 498.763 410.301 499.948C408.12 502.01 405.9 504.14 403.642 506.315C379.496 529.511 349.448 558.385 313.44 549.15C289.604 543.036 268.536 528.92 248.164 515.261C234.64 506.203 220.661 496.836 206.028 489.914L205.527 490.973C220.082 497.851 234.027 507.195 247.509 516.236C267.968 529.942 289.121 544.122 313.151 550.284C317.902 551.498 322.663 552.111 327.447 552.111Z" fill="#2A2425"/>
<path d="M328.014 515.388C358.531 515.388 383.428 493.615 405.582 474.238C407.303 472.738 409.007 471.245 410.701 469.775C412.17 468.504 413.643 467.218 415.126 465.923C440.044 444.194 465.811 421.712 499.67 424.452C527.356 426.68 554.102 437.321 579.969 447.612C593.291 452.909 607.065 458.39 620.691 462.59L621.029 461.466C607.449 457.278 593.696 451.809 580.394 446.516C554.449 436.198 527.622 425.522 499.763 423.276C465.425 420.505 438.299 444.164 414.368 465.036C412.885 466.329 411.412 467.611 409.945 468.889C408.249 470.359 406.544 471.845 404.823 473.351C381.181 494.022 354.385 517.451 321.151 513.834C296.176 511.117 272.474 500.638 249.556 490.5C237.705 485.26 225.448 479.843 213.247 475.61L212.871 476.726C225.028 480.937 237.258 486.347 249.09 491.582C272.088 501.749 295.874 512.27 321.026 515.004C323.387 515.263 325.719 515.388 328.014 515.388Z" fill="#2A2425"/>
<path d="M324.284 474.467C359.942 474.467 385.506 455.448 410.247 437.04L412.786 435.153C438.3 416.133 464.684 396.469 497.612 400.642C525.992 404.236 552.76 417.324 578.646 429.977C589.982 435.519 601.702 441.249 613.238 445.998L613.686 444.932C602.184 440.201 590.479 434.479 579.161 428.947C553.189 416.25 526.332 403.118 497.759 399.497C464.361 395.266 437.787 415.074 412.087 434.231L409.548 436.12C384.504 454.751 358.608 474.024 322.304 473.3C298.159 472.817 273.968 468.603 250.573 464.522C240.338 462.737 229.763 460.895 219.338 459.386L219.167 460.526C229.577 462.028 240.148 463.869 250.369 465.655C273.808 469.743 298.046 473.968 322.281 474.451C322.951 474.463 323.621 474.467 324.284 474.467Z" fill="#2A2425"/>
<path d="M224.447 442.989C231.079 442.806 237.712 442.633 244.344 442.455C272.031 441.726 300.66 440.968 328.809 439.768C360.171 438.429 383.84 424.665 409.347 408.165L412.282 406.266C435.995 390.891 460.514 374.996 489.261 377.178C519.928 379.509 548.869 396.084 576.856 412.112C586.882 417.854 596.35 423.274 605.812 428.011L606.34 426.991C596.907 422.264 587.452 416.85 577.44 411.118C549.339 395.028 520.283 378.385 489.352 376.036C460.205 373.82 434.408 390.548 411.643 405.306L408.709 407.206C383.348 423.608 359.826 437.291 328.759 438.62C300.619 439.82 271.995 440.578 244.314 441.307C237.682 441.484 231.045 441.657 224.413 441.841L224.447 442.989Z" fill="#2A2425"/>
<path d="M230.843 429.349C236.021 428.745 241.196 428.121 246.36 427.503C274.034 424.174 302.652 420.734 331.115 419.95C360.276 419.147 383.229 406.689 410.208 390.487L412.548 389.078C436.148 374.884 462.894 358.794 491.914 361.565C521.636 364.405 549.412 381.398 576.269 397.837C584.678 402.979 592.617 407.839 600.527 412.211L601.094 411.202C593.206 406.844 585.279 401.991 576.884 396.85C549.91 380.348 522.019 363.277 492.026 360.417C462.618 357.618 435.697 373.804 411.945 388.09L409.602 389.5C382.774 405.616 359.958 418 331.083 418.795C302.566 419.587 273.921 423.026 246.221 426.356C241.054 426.978 235.886 427.595 230.708 428.202L230.843 429.349Z" fill="#2A2425"/>
<path d="M237.127 419.906C268.175 416.624 299.987 414.05 334.379 412.018C363.32 410.311 388.744 397.136 411.178 385.518C412.959 384.591 414.758 383.653 416.576 382.704C438.198 371.405 462.698 358.598 487.472 359.176C517.134 359.872 547.051 376.241 573.448 390.685C580.685 394.647 587.519 398.386 594.273 401.799L594.799 400.763C588.06 397.362 581.233 393.63 574.005 389.672C547.493 375.166 517.444 358.727 487.499 358.019C462.437 357.436 437.785 370.315 416.036 381.675C414.221 382.63 412.422 383.568 410.643 384.487C388.314 396.06 363.005 409.172 334.309 410.867C299.9 412.892 268.07 415.473 237.004 418.753L237.127 419.906Z" fill="#2A2425"/>
<path d="M241.294 410.462C268.939 408.195 298.318 406.422 336.553 404.716C363.727 403.509 389.65 393.439 412.523 384.559C414.031 383.975 415.544 383.384 417.065 382.793C441.027 373.438 465.805 363.773 491.301 364.439C519.55 365.175 546.972 376.768 573.491 387.975C578.987 390.302 584.67 392.702 590.165 394.918L590.602 393.837C585.116 391.629 579.438 389.228 573.945 386.908C547.326 375.653 519.8 364.022 491.333 363.279C465.598 362.607 440.709 372.319 416.64 381.708C415.122 382.306 413.608 382.897 412.1 383.481C389.312 392.331 363.483 402.356 336.503 403.563C298.249 405.266 268.86 407.036 241.201 409.303L241.294 410.462Z" fill="#2A2425"/>
<path d="M246.515 403.118C276.489 401.465 307.753 400.314 339.437 399.712C365.349 399.216 390.287 392.892 414.403 386.777C438.433 380.678 463.284 374.376 489.105 373.875C519.263 373.286 548.799 381.643 577.367 389.723C580.279 390.545 583.186 391.372 586.089 392.18L586.404 391.071C583.501 390.256 580.594 389.434 577.685 388.608C549.035 380.504 519.415 372.13 489.082 372.719C463.125 373.22 438.21 379.545 414.117 385.655C390.065 391.753 365.193 398.064 339.415 398.556C307.717 399.158 276.439 400.309 246.447 401.962L246.515 403.118Z" fill="#2A2425"/>
<path d="M250.677 395.773C264.313 395.333 278.134 395.067 291.498 394.813C332.141 394.039 374.169 393.234 415.49 387.191C438.096 383.88 464.443 380.337 491.031 380.226C522.679 380.071 553.462 384.566 582.026 389.432L582.207 388.213C553.597 383.341 522.761 378.852 491.027 378.988C464.368 379.106 437.976 382.647 415.333 385.964C374.078 392 332.087 392.801 291.478 393.575C278.109 393.828 264.284 394.095 250.644 394.54L250.677 395.773Z" fill="#2A2425"/>
<path d="M255.909 388.428C272.505 388.245 289.374 388.217 305.687 388.191C342.418 388.124 380.399 388.063 417.758 386.261C475.026 383.509 528.108 383.631 580.039 386.643L580.109 385.538C528.136 382.526 475.01 382.403 417.702 385.162C380.37 386.958 342.402 387.018 305.685 387.085C289.367 387.111 272.496 387.14 255.891 387.323L255.909 388.428Z" fill="#2A2425"/>
<path d="M209.734 543.717C213.773 534.639 218.563 528.943 224.118 522.344C225.298 520.936 226.519 519.487 227.775 517.946C235.854 508.092 239.163 494.261 242.091 482.064C242.705 479.494 243.288 477.065 243.908 474.677C244.95 470.673 245.944 466.583 246.905 462.625C250.481 447.95 254.179 432.771 260.811 418.933C264.118 412.028 268.075 405.324 271.902 398.84C275.393 392.93 279.002 386.817 282.121 380.548L281.084 380.034C277.983 386.263 274.386 392.358 270.906 398.249C267.067 404.756 263.096 411.483 259.769 418.431C253.085 432.377 249.371 447.613 245.784 462.354C244.823 466.305 243.827 470.395 242.791 474.383C242.168 476.782 241.582 479.215 240.963 481.793C238.07 493.874 234.79 507.564 226.885 517.217C225.629 518.747 224.408 520.196 223.232 521.597C217.626 528.26 212.783 534.019 208.674 543.242L209.734 543.717Z" fill="#2A2425"/>
<path d="M244.425 543.717C245.539 539.519 246.642 537.242 247.883 536.543C248.764 536.049 249.774 536.339 251.056 536.703C252.747 537.19 254.854 537.794 257.483 536.726C260.638 535.451 262.338 528.693 263.707 521.577C263.857 520.801 263.973 520.192 264.06 519.838C266.6 509.451 268.548 498.724 270.432 488.344C270.775 486.446 271.117 484.558 271.464 482.674C272.391 477.632 273.231 472.346 274.045 467.234C276.883 449.418 279.817 430.987 287.228 414.996C289.773 409.494 292.773 404.133 295.673 398.946C298.988 393.017 302.416 386.886 305.205 380.499L304.134 380.034C301.371 386.369 297.956 392.478 294.653 398.385C291.744 403.59 288.732 408.973 286.167 414.509C278.69 430.649 275.742 449.155 272.892 467.055C272.081 472.156 271.24 477.435 270.318 482.466C269.972 484.354 269.628 486.244 269.284 488.133C267.404 498.498 265.458 509.213 262.927 519.565C262.834 519.942 262.713 520.567 262.563 521.356C261.809 525.274 260.043 534.437 257.046 535.655C254.788 536.565 252.975 536.049 251.378 535.592C249.954 535.179 248.612 534.797 247.306 535.533C245.732 536.425 244.53 538.784 243.299 543.421L244.425 543.717Z" fill="#2A2425"/>
<path d="M286.641 556.308L287.091 555.655C293.326 546.633 294.531 531.894 295.594 518.89C295.954 514.462 296.298 510.277 296.815 506.651C297.878 499.226 298.882 491.661 299.853 484.342C301.999 468.191 304.216 451.488 307.199 435.215C309.521 422.545 314.433 411.943 319.631 400.72C322.632 394.244 325.733 387.547 328.289 380.419L327.175 380.034C324.637 387.11 321.546 393.782 318.558 400.235C313.326 411.531 308.386 422.195 306.038 435.012C303.048 451.309 300.829 468.023 298.684 484.19C297.712 491.504 296.706 499.07 295.645 506.489C295.122 510.148 294.78 514.35 294.415 518.796C293.394 531.316 292.238 545.46 286.588 554.291C285.534 552.595 285.088 550.368 284.655 548.205C284.011 544.989 283.344 541.661 280.618 540.121L280.062 539.807L277.925 544.267L278.993 544.768L280.564 541.485C282.389 542.904 282.929 545.595 283.497 548.433C284.018 551.033 284.556 553.724 286.142 555.689L286.641 556.308Z" fill="#2A2425"/>
<path d="M317.609 567.85L318.148 566.39C323.283 552.526 324.277 536.202 325.24 520.419C325.623 514.15 325.986 508.232 326.593 502.543C327.252 496.401 327.892 490.143 328.513 484.1C330.286 466.812 332.117 448.936 334.555 431.462C336.048 420.764 339.708 411.037 343.248 401.635C345.813 394.818 348.462 387.775 350.324 380.32L349.221 380.034C347.377 387.421 344.738 394.435 342.184 401.217C338.622 410.683 334.938 420.474 333.427 431.301C330.987 448.798 329.154 466.683 327.38 483.978C326.76 490.02 326.119 496.274 325.46 502.416C324.849 508.134 324.488 514.068 324.103 520.349C323.182 535.435 322.232 551.014 317.656 564.374C316.795 560.997 316.884 557.365 316.976 553.554C317.077 549.318 317.185 544.935 315.856 540.908L315.376 539.462L313.6 543.734L314.648 544.193L315.211 542.833C316.012 546.249 315.923 549.94 315.836 553.525C315.732 557.864 315.623 562.357 317.082 566.39L317.609 567.85Z" fill="#2A2425"/>
<path d="M347.756 566.801L348.472 563.245C351.601 547.723 352.53 531.356 353.429 515.533C353.761 509.655 354.107 503.578 354.557 497.689C355.061 491.161 355.542 484.62 356.023 478.087C357.251 461.407 358.522 444.159 360.132 427.236L360.245 426.055C361.101 417.01 361.908 408.458 365.352 400.189C365.869 398.947 366.383 397.748 366.887 396.58C369.122 391.375 371.235 386.459 372.357 380.244L371.242 380.034C370.144 386.11 368.153 390.749 365.847 396.115C365.341 397.289 364.827 398.486 364.308 399.737C360.795 408.167 359.979 416.799 359.114 425.944L359.003 427.118C357.391 444.059 356.12 461.314 354.892 477.998C354.411 484.534 353.93 491.068 353.426 497.603C352.974 503.498 352.628 509.578 352.295 515.462C351.504 529.421 350.688 543.792 348.359 557.606C348.448 555.564 348.641 553.477 348.834 551.42C349.151 548.018 349.481 544.496 349.335 541.198L349.156 537.17L347.556 543.833L348.219 544.001C348.162 546.401 347.929 548.886 347.703 551.309C347.328 555.326 346.94 559.477 347.353 563.193L347.756 566.801Z" fill="#2A2425"/>
<path d="M378.868 547.914L379.849 546.288C380.105 545.862 380.404 545.42 380.714 544.952C381.446 543.856 382.261 542.631 382.791 541.325C382.899 541.423 382.978 541.546 383.025 541.674C383.157 542.048 383.152 542.783 382.371 544.193L383.372 544.766C384.183 543.301 384.421 542.164 384.105 541.277C383.885 540.66 383.409 540.204 382.69 539.931L382.124 539.714L381.938 540.298C381.513 541.639 380.651 542.963 379.867 544.142C379.584 534.599 380.296 524.747 380.988 515.205C381.358 510.078 381.742 504.781 381.965 499.631C382.416 489.043 382.842 478.271 383.256 467.858C383.841 453.036 384.448 437.72 385.142 422.653C385.234 420.641 385.265 418.536 385.295 416.501C385.409 408.463 385.526 400.158 389.332 393.395C390.113 392.007 390.924 390.923 391.71 389.873C393.609 387.325 395.248 385.131 395.441 380.08L394.292 380.034C394.115 384.716 392.648 386.682 390.793 389.166C389.987 390.246 389.152 391.368 388.335 392.819C384.383 399.836 384.262 408.299 384.145 416.483C384.116 418.513 384.086 420.607 383.994 422.596C383.301 437.668 382.692 452.991 382.106 467.812C381.693 478.225 381.269 488.991 380.815 499.583C380.595 504.712 380.211 510 379.842 515.118C379.104 525.307 378.34 535.836 378.785 546.008L378.868 547.914Z" fill="#2A2425"/>
<path d="M419.129 543.717C419.25 537.733 417.25 533.328 415.132 528.669C413.95 526.062 412.729 523.368 411.882 520.332C410.614 515.801 410.717 510.868 410.816 506.091C410.843 504.699 410.875 503.264 410.868 501.872C410.808 488.836 410.708 475.58 410.609 462.767L410.453 442.048C410.365 430.341 410.276 418.636 410.215 406.922C410.21 406.181 410.085 404.787 409.922 403.029C409.501 398.398 408.509 387.55 410.503 386.534C411.311 386.121 412.655 386.273 413.953 386.425C415.756 386.627 417.617 386.843 418.732 385.705C419.712 384.7 419.833 382.903 419.114 380.034L417.886 380.295C418.486 382.691 418.457 384.254 417.797 384.927C417.12 385.618 415.657 385.448 414.108 385.276C412.608 385.102 411.057 384.92 409.892 385.518C407.39 386.795 407.885 394.578 408.666 403.127C408.826 404.863 408.949 406.233 408.954 406.929C409.016 418.641 409.104 430.348 409.193 442.053L409.348 462.772C409.447 475.592 409.548 488.843 409.607 501.879C409.614 503.253 409.585 504.687 409.555 506.068C409.454 510.92 409.35 515.939 410.661 520.623C411.532 523.74 412.771 526.474 413.97 529.115C416.034 533.658 417.984 537.96 417.87 543.692L419.129 543.717Z" fill="#2A2425"/>
<path d="M453.028 543.717L454.199 543.584C452.853 531.968 450.403 520.457 448.036 509.327C445.266 496.305 442.402 482.837 441.304 469.167C440.055 453.625 438.992 437.808 437.969 422.509C437.669 418.053 437.37 413.6 437.067 409.149C436.848 405.945 436.383 402.44 435.893 398.73C434.821 390.65 433.618 381.559 435.047 374.503C435.643 375.556 436.151 376.707 436.648 377.83C437.713 380.243 438.815 382.74 440.807 384.287L441.719 384.99L441.909 379.821L440.734 379.773L440.63 382.524C439.404 381.17 438.585 379.307 437.727 377.364C437.016 375.753 436.28 374.083 435.272 372.67L434.541 371.64L434.221 372.856C432.26 380.298 433.57 390.173 434.725 398.882C435.212 402.575 435.675 406.06 435.891 409.223C436.195 413.679 436.494 418.131 436.793 422.586C437.819 437.89 438.88 453.712 440.129 469.26C441.233 483.005 444.107 496.507 446.884 509.565C449.246 520.67 451.69 532.154 453.028 543.717Z" fill="#2A2425"/>
<path d="M486.657 543.717L487.775 543.536C484.431 522.038 480.423 500.306 476.548 479.297C469.834 442.894 462.899 405.293 459.19 367.636C459.853 369.798 460.37 372.049 460.873 374.259C461.56 377.26 462.272 380.37 463.346 383.247L464.761 387.046L464.176 379.731L463.414 379.795C462.866 377.887 462.415 375.915 461.976 373.991C461.134 370.316 460.263 366.518 458.73 363.14L457.347 360.099L457.654 363.442C461.248 402.59 468.462 441.696 475.436 479.513C479.312 500.515 483.317 522.236 486.657 543.717Z" fill="#2A2425"/>
<path d="M521.252 543.717L522.4 543.462C519.894 532.559 517.247 521.498 514.689 510.796C509.949 490.99 505.051 470.511 500.853 450.259C498.507 438.942 496.403 427.343 494.37 416.129C490.954 397.31 487.422 377.85 482.634 359.049L481.48 359.241C481.856 363.543 482.662 367.882 483.442 372.076C483.963 374.876 484.498 377.746 484.904 380.616L484.493 380.72L485.301 383.779L486.456 383.571C486.141 380.568 485.638 377.554 485.101 374.593C488.163 388.506 490.718 402.591 493.213 416.337C495.249 427.559 497.353 439.162 499.701 450.489C503.903 470.759 508.804 491.25 513.543 511.063C516.102 521.758 518.749 532.819 521.252 543.717Z" fill="#2A2425"/>
<path d="M556.937 543.717L558.074 543.396L556.667 538.566C548.471 510.406 539.998 481.291 532.56 452.473C529.348 440.031 526.414 427.291 523.575 414.978C522.68 411.09 521.785 407.209 520.881 403.323C520.007 399.569 519.258 395.765 518.464 391.724C516.43 381.387 514.329 370.7 510.042 361.428L509.427 360.099L508.946 361.487C507.77 364.879 508.294 368.776 508.799 372.541C509.145 375.123 509.5 377.775 509.311 380.256L508.789 379.09L507.71 379.564L509.796 384.226L510.18 382.478C510.891 379.261 510.422 375.769 509.968 372.388C509.544 369.213 509.138 366.183 509.65 363.445C513.428 372.232 515.397 382.244 517.304 391.948C518.065 395.818 518.852 399.815 519.731 403.585C520.635 407.466 521.53 411.354 522.424 415.236C525.266 427.56 528.201 440.306 531.417 452.758C538.856 481.593 547.334 510.721 555.533 538.887L556.937 543.717Z" fill="#2A2425"/>
<path d="M591.603 543.717L592.701 543.321C580.192 508.716 571.199 482.1 563.547 457.008C560.11 445.738 556.931 434.186 553.856 423.016C552.717 418.882 551.58 414.745 550.426 410.611C549.861 408.589 549.278 405.731 548.601 402.428C546.409 391.72 543.407 377.05 537.302 372.059L536.798 371.64L536.443 372.186C535.33 373.891 534.97 375.816 534.622 377.675C534.314 379.31 534.022 380.874 533.25 382.219L531.798 379.808L530.795 380.401L533.165 384.341L533.687 383.664C535.009 381.943 535.397 379.878 535.768 377.886C536.069 376.291 536.354 374.772 537.076 373.404C542.523 378.551 545.365 392.44 547.457 402.658C548.138 405.984 548.726 408.856 549.303 410.926C550.454 415.051 551.593 419.186 552.731 423.322C555.807 434.499 558.988 446.062 562.43 457.343C570.09 482.453 579.087 509.094 591.603 543.717Z" fill="#2A2425"/>
<path d="M626.269 543.717L627.326 543.247C610.479 505.205 597.18 471.514 586.676 440.237C585.449 436.594 584.241 432.938 583.031 429.284C580.727 422.322 578.342 415.123 575.881 408.08C575.321 406.481 574.795 404.657 574.239 402.722C572.677 397.294 570.903 391.138 567.584 387.5C565.606 385.335 564.877 384.957 563.671 384.333C563.257 384.118 562.787 383.873 562.178 383.51C560.78 382.67 559.563 383.253 558.587 383.728C557.851 384.084 557.381 384.285 556.973 384.1C556.3 383.788 555.636 382.425 554.997 380.034L553.879 380.335C554.642 383.186 555.448 384.674 556.489 385.154C557.413 385.577 558.302 385.15 559.089 384.772C559.963 384.349 560.719 383.984 561.586 384.505C562.225 384.887 562.71 385.136 563.14 385.362C564.269 385.948 564.892 386.267 566.731 388.283C569.867 391.717 571.599 397.734 573.128 403.046C573.688 404.992 574.219 406.829 574.788 408.463C577.249 415.499 579.63 422.694 581.933 429.649C583.143 433.302 584.354 436.959 585.578 440.608C596.097 471.912 609.407 505.639 626.269 543.717Z" fill="#2A2425"/>
<circle cx="103.006" cy="178.006" r="72.8361" transform="rotate(-135 103.006 178.006)" fill="url(#paint0_linear_107_797)"/>
<mask id="mask0_107_797" style="mask-type:alpha" maskUnits="userSpaceOnUse" x="77" y="0" width="501" height="65">
<rect x="77" width="501" height="65" fill="#D9D9D9"/>
</mask>
<g mask="url(#mask0_107_797)">
<path d="M87.8926 0L22.8926 65" stroke="#F1E6D4"/>
<path d="M102.893 0L37.8926 65" stroke="#F1E6D4"/>
<path d="M117.893 0L52.8926 65" stroke="#F1E6D4"/>
<path d="M132.893 0L67.8926 65" stroke="#F1E6D4"/>
<path d="M147.893 0L82.8926 65" stroke="#F1E6D4"/>
<path d="M162.893 0L97.8926 65" stroke="#F1E6D4"/>
<path d="M177.893 0L112.893 65" stroke="#F1E6D4"/>
<path d="M192.893 0L127.893 65" stroke="#F1E6D4"/>
<path d="M207.893 0L142.893 65" stroke="#F1E6D4"/>
<path d="M222.893 0L157.893 65" stroke="#F1E6D4"/>
<path d="M237.893 0L172.893 65" stroke="#F1E6D4"/>
<path d="M252.893 0L187.893 65" stroke="#F1E6D4"/>
<path d="M267.893 0L202.893 65" stroke="#F1E6D4"/>
<path d="M282.893 0L217.893 65" stroke="#F1E6D4"/>
<path d="M297.893 0L232.893 65" stroke="#F1E6D4"/>
<path d="M312.893 0L247.893 65" stroke="#F1E6D4"/>
<path d="M327.893 0L262.893 65" stroke="#F1E6D4"/>
<path d="M342.893 0L277.893 65" stroke="#F1E6D4"/>
<path d="M357.893 0L292.893 65" stroke="#F1E6D4"/>
<path d="M372.893 0L307.893 65" stroke="#F1E6D4"/>
<path d="M387.893 0L322.893 65" stroke="#F1E6D4"/>
<path d="M402.893 0L337.893 65" stroke="#F1E6D4"/>
<path d="M417.893 0L352.893 65" stroke="#F1E6D4"/>
<path d="M432.893 0L367.893 65" stroke="#F1E6D4"/>
<path d="M447.893 0L382.893 65" stroke="#F1E6D4"/>
<path d="M462.893 0L397.893 65" stroke="#F1E6D4"/>
<path d="M477.893 0L412.893 65" stroke="#F1E6D4"/>
<path d="M492.893 0L427.893 65" stroke="#F1E6D4"/>
<path d="M507.893 0L442.893 65" stroke="#F1E6D4"/>
<path d="M522.893 0L457.893 65" stroke="#F1E6D4"/>
<path d="M537.893 0L472.893 65" stroke="#F1E6D4"/>
<path d="M552.893 0L487.893 65" stroke="#F1E6D4"/>
<path d="M567.893 0L502.893 65" stroke="#F1E6D4"/>
<path d="M582.893 0L517.893 65" stroke="#F1E6D4"/>
<path d="M597.893 0L532.893 65" stroke="#F1E6D4"/>
<path d="M612.893 0L547.893 65" stroke="#F1E6D4"/>
<path d="M627.893 0L562.893 65" stroke="#F1E6D4"/>
<path d="M642.893 0L577.893 65" stroke="#F1E6D4"/>
</g>
<path d="M528.746 134.192C528.53 135.848 528.368 137.702 528.26 139.754C528.188 141.842 528.152 143.948 528.152 146.072C528.188 148.232 528.26 150.302 528.368 152.282C528.512 154.262 528.656 155.972 528.8 157.412L521.834 157.412C521.69 155.756 521.564 153.938 521.456 151.958C521.384 149.978 521.348 147.944 521.348 145.856C521.348 143.768 521.384 141.716 521.456 139.7C521.564 137.72 521.69 135.884 521.834 134.192L528.746 134.192ZM505.688 138.512C504.788 138.296 503.978 138.134 503.258 138.026C502.574 137.918 501.872 137.864 501.152 137.864C500.576 137.864 500.036 138.008 499.532 138.296C499.064 138.584 498.65 139.016 498.29 139.592C497.966 140.204 497.714 140.978 497.534 141.914C497.39 142.886 497.318 144.056 497.318 145.424C497.318 147.836 497.426 150.104 497.642 152.228C497.894 154.352 498.254 156.602 498.722 158.978L491.432 159.086C491.108 157.358 490.856 155.36 490.676 153.092C490.496 150.86 490.406 148.214 490.406 145.154C490.406 140.51 491.18 137.054 492.728 134.786C494.312 132.518 496.49 131.384 499.262 131.384C500.306 131.384 501.386 131.456 502.502 131.6C503.654 131.78 504.914 132.014 506.282 132.302L505.688 138.512ZM532.364 125.876C532.004 125.732 531.5 125.57 530.852 125.39C530.204 125.21 529.574 125.03 528.962 124.85C528.35 124.706 527.882 124.598 527.558 124.526C526.802 124.418 525.812 124.238 524.588 123.986C523.4 123.77 522.05 123.536 520.538 123.284C519.062 123.068 517.55 122.852 516.002 122.636C514.454 122.42 512.96 122.24 511.52 122.096C510.08 121.988 508.82 121.934 507.74 121.934C507.236 121.934 506.66 121.934 506.012 121.934C505.364 121.97 504.77 122.042 504.23 122.15C504.842 122.402 505.454 122.672 506.066 122.96C506.678 123.248 507.29 123.536 507.902 123.824C508.55 124.112 509.162 124.364 509.738 124.58L507.092 127.928C505.616 127.424 504.032 126.902 502.34 126.362C500.648 125.858 499.046 125.39 497.534 124.958C496.058 124.562 494.834 124.256 493.862 124.04C493.466 123.968 493.016 123.896 492.512 123.824C492.008 123.788 491.612 123.77 491.324 123.77C491.036 123.77 490.694 123.77 490.298 123.77C489.866 123.806 489.47 123.842 489.11 123.878L488.678 117.614C490.55 117.074 493.034 116.588 496.13 116.156C499.262 115.724 502.664 115.508 506.336 115.508C508.352 115.508 510.404 115.598 512.492 115.778C514.58 115.958 516.578 116.174 518.486 116.426C520.43 116.678 522.194 116.912 523.778 117.128C525.362 117.38 526.676 117.596 527.72 117.776C528.476 117.848 529.322 117.938 530.258 118.046C531.23 118.19 532.148 118.28 533.012 118.316L532.364 125.876ZM520.592 166.916C520.772 167.924 521.024 169.04 521.348 170.264C521.672 171.488 521.96 172.586 522.212 173.558C522.536 174.602 522.986 176.006 523.562 177.77C524.138 179.57 524.714 181.55 525.29 183.71C525.866 185.87 526.352 188.066 526.748 190.298C527.18 192.566 527.396 194.672 527.396 196.616C527.396 199.892 526.784 202.844 525.56 205.472C524.336 208.1 522.572 210.188 520.268 211.736C517.964 213.284 515.138 214.058 511.79 214.058C509.342 214.058 507.074 213.608 504.986 212.708C502.898 211.808 501.026 210.476 499.37 208.712C497.714 206.984 496.274 204.878 495.05 202.394C493.826 199.91 492.836 197.066 492.08 193.862C491.36 190.694 490.91 187.202 490.73 183.386L497.912 180.254C497.984 183.926 498.308 187.328 498.884 190.46C499.496 193.628 500.36 196.4 501.476 198.776C502.628 201.152 504.068 203.006 505.796 204.338C507.524 205.67 509.558 206.336 511.898 206.336C513.59 206.336 515.102 205.958 516.434 205.202C517.802 204.446 518.882 203.312 519.674 201.8C520.466 200.324 520.862 198.506 520.862 196.346C520.862 194.762 520.664 193.016 520.268 191.108C519.908 189.2 519.422 187.238 518.81 185.222C518.198 183.242 517.532 181.298 516.812 179.39C516.128 177.482 515.444 175.718 514.76 174.098C514.076 172.478 513.5 171.11 513.032 169.994L520.592 166.916ZM529.61 232.04C528.962 231.896 528.224 231.77 527.396 231.662C526.568 231.59 525.758 231.518 524.966 231.446C524.174 231.41 523.526 231.392 523.022 231.392C521.834 231.356 520.61 231.338 519.35 231.338C518.09 231.374 516.794 231.41 515.462 231.446C514.166 231.518 512.87 231.608 511.574 231.716C508.982 231.968 506.696 232.328 504.716 232.796C502.736 233.264 501.188 233.876 500.072 234.632C498.992 235.388 498.452 236.342 498.452 237.494C498.452 238.106 498.794 238.7 499.478 239.276C500.162 239.888 501.044 240.428 502.124 240.896C503.24 241.4 504.41 241.832 505.634 242.192C506.858 242.588 508.01 242.93 509.09 243.218L502.502 248.618C499.37 247.43 496.868 246.242 494.996 245.054C493.16 243.902 491.828 242.696 491 241.436C490.208 240.176 489.812 238.808 489.812 237.332C489.812 235.388 490.46 233.534 491.756 231.77C493.052 230.042 495.14 228.566 498.02 227.342C500.936 226.118 504.806 225.254 509.63 224.75C511.286 224.57 513.032 224.426 514.868 224.318C516.704 224.246 518.45 224.192 520.106 224.156C521.762 224.156 523.13 224.156 524.21 224.156C524.966 224.156 525.866 224.12 526.91 224.048C527.954 223.976 528.89 223.868 529.718 223.724L529.61 232.04ZM528.368 259.04C527.144 260.048 525.65 261.02 523.886 261.956C522.122 262.892 520.232 263.756 518.216 264.548C516.2 265.34 514.13 266.042 512.006 266.654C509.918 267.266 507.866 267.752 505.85 268.112C503.87 268.508 502.052 268.76 500.396 268.868L497.642 261.74C499.838 261.56 502.232 261.236 504.824 260.768C507.416 260.3 510.026 259.67 512.654 258.878C515.282 258.086 517.766 257.132 520.106 256.016C522.446 254.936 524.462 253.658 526.154 252.182L528.368 259.04ZM528.152 274.199C528.188 275.279 528.224 276.305 528.26 277.277C528.332 278.249 528.386 279.005 528.422 279.545C528.53 280.661 528.656 282.029 528.8 283.649C528.944 285.269 529.106 287.087 529.286 289.103C529.466 291.155 529.646 293.333 529.826 295.637C530.042 297.941 530.258 300.335 530.474 302.819C530.618 304.691 530.744 306.563 530.852 308.435C530.996 310.307 531.104 312.071 531.176 313.727C531.284 315.419 531.356 316.877 531.392 318.101L524.48 318.155C524.48 317.183 524.462 316.067 524.426 314.807C524.39 313.547 524.318 312.287 524.21 311.027C524.138 309.803 523.994 308.705 523.778 307.733C523.346 306.113 522.608 304.601 521.564 303.197C520.556 301.829 519.35 300.623 517.946 299.579C516.542 298.535 515.03 297.725 513.41 297.149C511.826 296.609 510.224 296.339 508.604 296.339C506.84 296.339 505.274 296.645 503.906 297.257C502.574 297.869 501.422 298.715 500.45 299.795C499.514 300.911 498.722 302.207 498.074 303.683C497.462 305.159 496.994 306.743 496.67 308.435C496.346 310.163 496.13 311.945 496.022 313.781L488.624 311.243C488.768 308.975 489.128 306.761 489.704 304.601C490.28 302.477 491.072 300.479 492.08 298.607C493.088 296.771 494.312 295.151 495.752 293.747C497.228 292.343 498.902 291.245 500.774 290.453C502.682 289.661 504.806 289.265 507.146 289.265C509.774 289.265 512.168 289.679 514.328 290.507C516.488 291.335 518.378 292.361 519.998 293.585C521.654 294.809 522.932 296.033 523.832 297.257C523.724 296.249 523.58 295.025 523.4 293.585C523.256 292.181 523.076 290.651 522.86 288.995C522.68 287.375 522.482 285.719 522.266 284.027C522.05 282.335 521.798 280.697 521.51 279.113C521.258 277.565 521.006 276.161 520.754 274.901L528.152 274.199Z" fill="#F1E6D4"/>
<defs>
<linearGradient id="paint0_linear_107_797" x1="103.006" y1="63.4461" x2="103.006" y2="247.02" gradientUnits="userSpaceOnUse">
<stop stop-color="#F1E6D4"/>
<stop offset="1" stop-color="#FE8F21"/>
</linearGradient>
</defs>
</svg>
