<svg width="523" height="462" viewBox="0 0 523 462" fill="none" xmlns="http://www.w3.org/2000/svg">
<path d="M500 0V23L523 23" stroke="#F1E6D4"/>
<path d="M500 46L500 23L477 23" stroke="#F1E6D4"/>
<path d="M500 416V439H523" stroke="#F1E6D4"/>
<path d="M500 462L500 439L477 439" stroke="#F1E6D4"/>
<path d="M129.823 26.361V24.008L132.995 19.77H134.919L129.823 26.361ZM128.341 29V19.77H129.953V29H128.341ZM133.177 29L130.525 24.58L131.617 23.527L134.997 29H133.177Z" fill="#F1E6D4"/>
<path d="M119.401 29V19.77H122.326C123.314 19.77 124.09 20.017 124.653 20.511C125.217 21.005 125.498 21.681 125.498 22.539C125.498 22.981 125.399 23.371 125.199 23.709C125.009 24.047 124.753 24.3157 124.432 24.515C124.112 24.7057 123.761 24.814 123.379 24.84L123.327 24.671C123.995 24.697 124.493 24.8444 124.822 25.113C125.152 25.373 125.342 25.802 125.394 26.4L125.615 29H124.003L123.808 26.777C123.782 26.4477 123.717 26.192 123.613 26.01C123.518 25.828 123.366 25.7024 123.158 25.633C122.959 25.5637 122.682 25.529 122.326 25.529H121.013V29H119.401ZM121.013 24.047H122.287C122.79 24.047 123.171 23.9257 123.431 23.683C123.7 23.4404 123.834 23.0937 123.834 22.643C123.834 22.1924 123.7 21.85 123.431 21.616C123.171 21.3734 122.79 21.252 122.287 21.252H121.013V24.047Z" fill="#F1E6D4"/>
<path d="M109.748 29L112.374 19.77H114.376L117.002 29H115.351L113.375 21.59L111.399 29H109.748ZM111.36 26.816L111.802 25.373H114.948L115.39 26.816H111.36Z" fill="#F1E6D4"/>
<path d="M103.747 27.804L102.291 21.746L102.486 21.72V29H100.978V19.77H102.928L104.527 26.192H104.033L105.632 19.77H107.582V29H106.074V21.72L106.269 21.746L104.813 27.804H103.747Z" fill="#F1E6D4"/>
<path d="M95.1846 29.208C94.4479 29.208 93.8196 29.0217 93.2996 28.649C92.7882 28.2763 92.3982 27.7303 92.1296 27.011C91.8609 26.2917 91.7266 25.4207 91.7266 24.398C91.7266 23.358 91.8609 22.4783 92.1296 21.759C92.3982 21.0397 92.7882 20.4937 93.2996 20.121C93.8196 19.7483 94.4479 19.562 95.1846 19.562C95.9212 19.562 96.5452 19.7483 97.0566 20.121C97.5766 20.4937 97.9709 21.0397 98.2396 21.759C98.5082 22.4783 98.6426 23.358 98.6426 24.398C98.6426 25.4207 98.5082 26.2917 98.2396 27.011C97.9709 27.7303 97.5766 28.2763 97.0566 28.649C96.5452 29.0217 95.9212 29.208 95.1846 29.208ZM95.1846 27.752C95.5746 27.752 95.9039 27.6307 96.1726 27.388C96.4412 27.1453 96.6406 26.777 96.7706 26.283C96.9092 25.7803 96.9786 25.152 96.9786 24.398C96.9786 23.644 96.9092 23.0157 96.7706 22.513C96.6406 22.0103 96.4412 21.6377 96.1726 21.395C95.9039 21.1437 95.5746 21.018 95.1846 21.018C94.7946 21.018 94.4652 21.1437 94.1966 21.395C93.9279 21.6377 93.7242 22.0103 93.5856 22.513C93.4556 23.0157 93.3906 23.644 93.3906 24.398C93.3906 25.152 93.4556 25.7803 93.5856 26.283C93.7242 26.777 93.9279 27.1453 94.1966 27.388C94.4652 27.6307 94.7946 27.752 95.1846 27.752Z" fill="#F1E6D4"/>
<path d="M86.0898 29.208C85.4138 29.208 84.8158 29.026 84.2958 28.662C83.7758 28.2893 83.3685 27.7433 83.0738 27.024C82.7792 26.3047 82.6318 25.4293 82.6318 24.398C82.6318 23.4013 82.7705 22.5433 83.0478 21.824C83.3252 21.1047 83.7238 20.55 84.2438 20.16C84.7725 19.7613 85.4008 19.562 86.1288 19.562C86.7182 19.562 87.2382 19.6877 87.6888 19.939C88.1395 20.1903 88.5122 20.5543 88.8068 21.031C89.1102 21.499 89.3268 22.058 89.4568 22.708L87.7928 22.812C87.6802 22.2487 87.4852 21.811 87.2078 21.499C86.9305 21.187 86.5752 21.031 86.1418 21.031C85.7518 21.031 85.4182 21.161 85.1408 21.421C84.8635 21.681 84.6512 22.0623 84.5038 22.565C84.3652 23.0677 84.2958 23.6787 84.2958 24.398C84.2958 25.1087 84.3695 25.7153 84.5168 26.218C84.6728 26.712 84.8938 27.089 85.1798 27.349C85.4658 27.609 85.8168 27.739 86.2328 27.739C86.5795 27.739 86.8785 27.6523 87.1298 27.479C87.3812 27.297 87.5762 27.0413 87.7148 26.712C87.8622 26.3827 87.9445 25.997 87.9618 25.555H86.1158V24.242H89.4438V29H88.2738L88.1958 26.946L88.5858 26.829C88.5078 27.2623 88.3648 27.661 88.1568 28.025C87.9575 28.389 87.6845 28.6793 87.3378 28.896C86.9998 29.104 86.5838 29.208 86.0898 29.208Z" fill="#F1E6D4"/>
<path d="M76.9951 29.208C76.2584 29.208 75.6301 29.0217 75.1101 28.649C74.5988 28.2763 74.2088 27.7303 73.9401 27.011C73.6714 26.2917 73.5371 25.4207 73.5371 24.398C73.5371 23.358 73.6714 22.4783 73.9401 21.759C74.2088 21.0397 74.5988 20.4937 75.1101 20.121C75.6301 19.7483 76.2584 19.562 76.9951 19.562C77.7318 19.562 78.3558 19.7483 78.8671 20.121C79.3871 20.4937 79.7814 21.0397 80.0501 21.759C80.3188 22.4783 80.4531 23.358 80.4531 24.398C80.4531 25.4207 80.3188 26.2917 80.0501 27.011C79.7814 27.7303 79.3871 28.2763 78.8671 28.649C78.3558 29.0217 77.7318 29.208 76.9951 29.208ZM76.9951 27.752C77.3851 27.752 77.7144 27.6307 77.9831 27.388C78.2518 27.1453 78.4511 26.777 78.5811 26.283C78.7198 25.7803 78.7891 25.152 78.7891 24.398C78.7891 23.644 78.7198 23.0157 78.5811 22.513C78.4511 22.0103 78.2518 21.6377 77.9831 21.395C77.7144 21.1437 77.3851 21.018 76.9951 21.018C76.6051 21.018 76.2758 21.1437 76.0071 21.395C75.7384 21.6377 75.5348 22.0103 75.3961 22.513C75.2661 23.0157 75.2011 23.644 75.2011 24.398C75.2011 25.152 75.2661 25.7803 75.3961 26.283C75.5348 26.777 75.7384 27.1453 76.0071 27.388C76.2758 27.6307 76.6051 27.752 76.9951 27.752Z" fill="#F1E6D4"/>
<path d="M65.248 29V19.77H66.86V28.48L65.755 27.518H71.072V29H65.248Z" fill="#F1E6D4"/>
<line x1="23.5" y1="58" x2="23.5" y2="406" stroke="#DDD3C2"/>
<line x1="500" y1="58" x2="500" y2="406" stroke="#DDD3C2"/>
<line x1="467" y1="23" x2="160" y2="23" stroke="#DDD3C2"/>
<line x1="294" y1="439" x2="58" y2="439" stroke="#DDD3C2"/>
<circle cx="500" cy="23" r="9.5" stroke="#F1E6D4"/>
<path d="M23 0L23 23L46 23" stroke="#F1E6D4"/>
<path d="M23 46L23 23L-7.54388e-08 23" stroke="#F1E6D4"/>
<circle cx="23" cy="23" r="9.5" stroke="#F1E6D4"/>
<path d="M23 416L23 439H46" stroke="#F1E6D4"/>
<path d="M23 462L23 439L-7.54388e-08 439" stroke="#F1E6D4"/>
<circle cx="23" cy="439" r="9.5" stroke="#F1E6D4"/>
<circle cx="500" cy="439" r="9.5" stroke="#F1E6D4"/>
<mask id="mask0_127_906" style="mask-type:alpha" maskUnits="userSpaceOnUse" x="174" y="106" width="224" height="241">
<path d="M274.392 229.172L392.638 347H292.241L174 229.172L297.608 106H398L336.196 167.586L274.392 229.172Z" fill="#F1E6D4"/>
</mask>
<g mask="url(#mask0_127_906)">
<mask id="mask1_127_906" style="mask-type:alpha" maskUnits="userSpaceOnUse" x="173" y="131" width="65" height="500">
<rect width="500" height="65" transform="matrix(-4.37114e-08 1 1 4.37114e-08 173 131)" fill="#D9D9D9"/>
</mask>
<g mask="url(#mask1_127_906)">
<path d="M173 142L238 77" stroke="#F1E6D4"/>
<path d="M173 157L238 92" stroke="#F1E6D4"/>
<path d="M173 172L238 107" stroke="#F1E6D4"/>
<path d="M173 187L238 122" stroke="#F1E6D4"/>
<path d="M173 202L238 137" stroke="#F1E6D4"/>
<path d="M173 217L238 152" stroke="#F1E6D4"/>
<path d="M173 232L238 167" stroke="#F1E6D4"/>
<path d="M173 247L238 182" stroke="#F1E6D4"/>
<path d="M173 262L238 197" stroke="#F1E6D4"/>
<path d="M173 277L238 212" stroke="#F1E6D4"/>
<path d="M173 292L238 227" stroke="#F1E6D4"/>
<path d="M173 307L238 242" stroke="#F1E6D4"/>
<path d="M173 322L238 257" stroke="#F1E6D4"/>
<path d="M173 337L238 272" stroke="#F1E6D4"/>
<path d="M173 352L238 287" stroke="#F1E6D4"/>
<path d="M173 367L238 302" stroke="#F1E6D4"/>
<path d="M173 382L238 317" stroke="#F1E6D4"/>
<path d="M173 397L238 332" stroke="#F1E6D4"/>
<path d="M173 412L238 347" stroke="#F1E6D4"/>
</g>
<mask id="mask2_127_906" style="mask-type:alpha" maskUnits="userSpaceOnUse" x="237" y="97" width="65" height="500">
<rect width="500" height="65" transform="matrix(-4.37114e-08 1 1 4.37114e-08 237 97)" fill="#D9D9D9"/>
</mask>
<g mask="url(#mask2_127_906)">
<path d="M237 108L302 43" stroke="#F1E6D4"/>
<path d="M237 123L302 58" stroke="#F1E6D4"/>
<path d="M237 138L302 73" stroke="#F1E6D4"/>
<path d="M237 153L302 88" stroke="#F1E6D4"/>
<path d="M237 168L302 103" stroke="#F1E6D4"/>
<path d="M237 183L302 118" stroke="#F1E6D4"/>
<path d="M237 198L302 133" stroke="#F1E6D4"/>
<path d="M237 213L302 148" stroke="#F1E6D4"/>
<path d="M237 228L302 163" stroke="#F1E6D4"/>
<path d="M237 243L302 178" stroke="#F1E6D4"/>
<path d="M237 258L302 193" stroke="#F1E6D4"/>
<path d="M237 273L302 208" stroke="#F1E6D4"/>
<path d="M237 288L302 223" stroke="#F1E6D4"/>
<path d="M237 303L302 238" stroke="#F1E6D4"/>
<path d="M237 318L302 253" stroke="#F1E6D4"/>
<path d="M237 333L302 268" stroke="#F1E6D4"/>
<path d="M237 348L302 283" stroke="#F1E6D4"/>
<path d="M237 363L302 298" stroke="#F1E6D4"/>
<path d="M237 378L302 313" stroke="#F1E6D4"/>
<path d="M237 393L302 328" stroke="#F1E6D4"/>
<path d="M237 408L302 343" stroke="#F1E6D4"/>
</g>
<mask id="mask3_127_906" style="mask-type:alpha" maskUnits="userSpaceOnUse" x="298" y="96" width="65" height="500">
<rect width="500" height="65" transform="matrix(-4.37114e-08 1 1 4.37114e-08 298 96)" fill="#D9D9D9"/>
</mask>
<g mask="url(#mask3_127_906)">
<path d="M298 107L363 42" stroke="#F1E6D4"/>
<path d="M298 122L363 57" stroke="#F1E6D4"/>
<path d="M298 137L363 72" stroke="#F1E6D4"/>
<path d="M298 152L363 87" stroke="#F1E6D4"/>
<path d="M298 167L363 102" stroke="#F1E6D4"/>
<path d="M298 182L363 117" stroke="#F1E6D4"/>
<path d="M298 197L363 132" stroke="#F1E6D4"/>
<path d="M298 212L363 147" stroke="#F1E6D4"/>
<path d="M298 227L363 162" stroke="#F1E6D4"/>
<path d="M298 242L363 177" stroke="#F1E6D4"/>
<path d="M298 257L363 192" stroke="#F1E6D4"/>
<path d="M298 272L363 207" stroke="#F1E6D4"/>
<path d="M298 287L363 222" stroke="#F1E6D4"/>
<path d="M298 302L363 237" stroke="#F1E6D4"/>
<path d="M298 317L363 252" stroke="#F1E6D4"/>
<path d="M298 332L363 267" stroke="#F1E6D4"/>
<path d="M298 347L363 282" stroke="#F1E6D4"/>
<path d="M298 362L363 297" stroke="#F1E6D4"/>
<path d="M298 377L363 312" stroke="#F1E6D4"/>
<path d="M298 392L363 327" stroke="#F1E6D4"/>
<path d="M298 407L363 342" stroke="#F1E6D4"/>
</g>
<mask id="mask4_127_906" style="mask-type:alpha" maskUnits="userSpaceOnUse" x="362" y="77" width="65" height="500">
<rect width="500" height="65" transform="matrix(-4.37114e-08 1 1 4.37114e-08 362 77)" fill="#D9D9D9"/>
</mask>
<g mask="url(#mask4_127_906)">
<path d="M362 118L427 53" stroke="#F1E6D4"/>
<path d="M362 133L427 68" stroke="#F1E6D4"/>
<path d="M362 148L427 83" stroke="#F1E6D4"/>
<path d="M362 163L427 98" stroke="#F1E6D4"/>
<path d="M362 178L427 113" stroke="#F1E6D4"/>
<path d="M362 193L427 128" stroke="#F1E6D4"/>
<path d="M362 208L427 143" stroke="#F1E6D4"/>
<path d="M362 223L427 158" stroke="#F1E6D4"/>
<path d="M362 238L427 173" stroke="#F1E6D4"/>
<path d="M362 253L427 188" stroke="#F1E6D4"/>
<path d="M362 268L427 203" stroke="#F1E6D4"/>
<path d="M362 283L427 218" stroke="#F1E6D4"/>
<path d="M362 298L427 233" stroke="#F1E6D4"/>
<path d="M362 313L427 248" stroke="#F1E6D4"/>
<path d="M362 328L427 263" stroke="#F1E6D4"/>
<path d="M362 343L427 278" stroke="#F1E6D4"/>
<path d="M362 358L427 293" stroke="#F1E6D4"/>
<path d="M362 373L427 308" stroke="#F1E6D4"/>
<path d="M362 388L427 323" stroke="#F1E6D4"/>
<path d="M362 403L427 338" stroke="#F1E6D4"/>
</g>
</g>
<path d="M125.5 177.5L140.793 177.5L125.5 192.793L125.5 177.5Z" stroke="#F1E6D4"/>
<path d="M143.5 159.5L158.793 159.5L143.5 174.793L143.5 159.5Z" stroke="#F1E6D4"/>
<path d="M125.5 159.5L140.793 159.5L125.5 174.793L125.5 159.5Z" stroke="#F1E6D4"/>
<path d="M161.5 141.5L176.793 141.5L161.5 156.793L161.5 141.5Z" stroke="#F1E6D4"/>
<path d="M143.5 141.5L158.793 141.5L143.5 156.793L143.5 141.5Z" stroke="#F1E6D4"/>
<path d="M125.5 141.5L140.793 141.5L125.5 156.793L125.5 141.5Z" stroke="#F1E6D4"/>
<path d="M179.5 123.5L194.793 123.5L179.5 138.793L179.5 123.5Z" stroke="#F1E6D4"/>
<path d="M161.5 123.5L176.793 123.5L161.5 138.793L161.5 123.5Z" stroke="#F1E6D4"/>
<path d="M143.5 123.5L158.793 123.5L143.5 138.793L143.5 123.5Z" stroke="#F1E6D4"/>
<path d="M125.5 123.5L140.793 123.5L125.5 138.793L125.5 123.5Z" stroke="#F1E6D4"/>
<path d="M197.5 105.5L212.793 105.5L197.5 120.793L197.5 105.5Z" stroke="#F1E6D4"/>
<path d="M179.5 105.5L194.793 105.5L179.5 120.793L179.5 105.5Z" stroke="#F1E6D4"/>
<path d="M161.5 105.5L176.793 105.5L161.5 120.793L161.5 105.5Z" stroke="#F1E6D4"/>
<path d="M143.5 105.5L158.793 105.5L143.5 120.793L143.5 105.5Z" stroke="#F1E6D4"/>
<path d="M125.5 105.5L140.793 105.5L125.5 120.793L125.5 105.5Z" stroke="#F1E6D4"/>
<path d="M125.5 273.5L140.793 273.5L125.5 258.207L125.5 273.5Z" stroke="#F1E6D4"/>
<path d="M143.5 291.5L158.793 291.5L143.5 276.207L143.5 291.5Z" stroke="#F1E6D4"/>
<path d="M125.5 291.5L140.793 291.5L125.5 276.207L125.5 291.5Z" stroke="#F1E6D4"/>
<path d="M161.5 309.5L176.793 309.5L161.5 294.207L161.5 309.5Z" stroke="#F1E6D4"/>
<path d="M143.5 309.5L158.793 309.5L143.5 294.207L143.5 309.5Z" stroke="#F1E6D4"/>
<path d="M125.5 309.5L140.793 309.5L125.5 294.207L125.5 309.5Z" stroke="#F1E6D4"/>
<path d="M179.5 327.5L194.793 327.5L179.5 312.207L179.5 327.5Z" stroke="#F1E6D4"/>
<path d="M161.5 327.5L176.793 327.5L161.5 312.207L161.5 327.5Z" stroke="#F1E6D4"/>
<path d="M143.5 327.5L158.793 327.5L143.5 312.207L143.5 327.5Z" stroke="#F1E6D4"/>
<path d="M125.5 327.5L140.793 327.5L125.5 312.207L125.5 327.5Z" stroke="#F1E6D4"/>
<path d="M197.5 345.5L212.793 345.5L197.5 330.207L197.5 345.5Z" stroke="#F1E6D4"/>
<path d="M179.5 345.5L194.793 345.5L179.5 330.207L179.5 345.5Z" stroke="#F1E6D4"/>
<path d="M161.5 345.5L176.793 345.5L161.5 330.207L161.5 345.5Z" stroke="#F1E6D4"/>
<path d="M143.5 345.5L158.793 345.5L143.5 330.207L143.5 345.5Z" stroke="#F1E6D4"/>
<path d="M125.5 345.5L140.793 345.5L125.5 330.207L125.5 345.5Z" stroke="#F1E6D4"/>
<line x1="460.5" y1="431" x2="460.5" y2="446" stroke="#F1E6D4"/>
<line x1="457.5" y1="431" x2="457.5" y2="446" stroke="#F1E6D4"/>
<line x1="454.5" y1="431" x2="454.5" y2="446" stroke="#F1E6D4"/>
<line x1="452.5" y1="431" x2="452.5" y2="446" stroke="#F1E6D4" stroke-width="3"/>
<line x1="448.5" y1="431" x2="448.5" y2="446" stroke="#F1E6D4"/>
<line x1="445.5" y1="431" x2="445.5" y2="446" stroke="#F1E6D4"/>
<line x1="442.5" y1="431" x2="442.5" y2="446" stroke="#F1E6D4"/>
<line x1="439.5" y1="431" x2="439.5" y2="446" stroke="#F1E6D4"/>
<line x1="436.5" y1="431" x2="436.5" y2="446" stroke="#F1E6D4"/>
<line x1="434.5" y1="431" x2="434.5" y2="446" stroke="#F1E6D4" stroke-width="3"/>
<line x1="430.5" y1="431" x2="430.5" y2="446" stroke="#F1E6D4"/>
<line x1="427.5" y1="431" x2="427.5" y2="446" stroke="#F1E6D4"/>
<line x1="424.5" y1="431" x2="424.5" y2="446" stroke="#F1E6D4"/>
<line x1="421.5" y1="431" x2="421.5" y2="446" stroke="#F1E6D4"/>
<line x1="418.5" y1="431" x2="418.5" y2="446" stroke="#F1E6D4"/>
<line x1="416.5" y1="431" x2="416.5" y2="446" stroke="#F1E6D4" stroke-width="3"/>
<line x1="412.5" y1="431" x2="412.5" y2="446" stroke="#F1E6D4"/>
<line x1="409.5" y1="431" x2="409.5" y2="446" stroke="#F1E6D4"/>
<line x1="407.5" y1="431" x2="407.5" y2="446" stroke="#F1E6D4" stroke-width="3"/>
<line x1="403.5" y1="431" x2="403.5" y2="446" stroke="#F1E6D4"/>
<line x1="400.5" y1="431" x2="400.5" y2="446" stroke="#F1E6D4"/>
<line x1="397.5" y1="431" x2="397.5" y2="446" stroke="#F1E6D4"/>
<line x1="394.5" y1="431" x2="394.5" y2="446" stroke="#F1E6D4"/>
<line x1="391.5" y1="431" x2="391.5" y2="446" stroke="#F1E6D4"/>
<line x1="389.5" y1="431" x2="389.5" y2="446" stroke="#F1E6D4" stroke-width="3"/>
<line x1="386.5" y1="431" x2="386.5" y2="446" stroke="#F1E6D4" stroke-width="3"/>
<line x1="383.5" y1="431" x2="383.5" y2="446" stroke="#F1E6D4" stroke-width="3"/>
<line x1="379.5" y1="431" x2="379.5" y2="446" stroke="#F1E6D4"/>
<line x1="376.5" y1="431" x2="376.5" y2="446" stroke="#F1E6D4"/>
<line x1="374.5" y1="431" x2="374.5" y2="446" stroke="#F1E6D4" stroke-width="3"/>
<line x1="370.5" y1="431" x2="370.5" y2="446" stroke="#F1E6D4"/>
<line x1="367.5" y1="431" x2="367.5" y2="446" stroke="#F1E6D4"/>
<line x1="367.5" y1="431" x2="367.5" y2="446" stroke="#F1E6D4"/>
<line x1="364.5" y1="431" x2="364.5" y2="446" stroke="#F1E6D4"/>
<line x1="361.5" y1="431" x2="361.5" y2="446" stroke="#F1E6D4"/>
<line x1="359.5" y1="431" x2="359.5" y2="446" stroke="#F1E6D4" stroke-width="3"/>
<line x1="355.5" y1="431" x2="355.5" y2="446" stroke="#F1E6D4"/>
<line x1="352.5" y1="431" x2="352.5" y2="446" stroke="#F1E6D4"/>
<line x1="350.5" y1="431" x2="350.5" y2="446" stroke="#F1E6D4" stroke-width="3"/>
<line x1="346.5" y1="431" x2="346.5" y2="446" stroke="#F1E6D4"/>
<line x1="343.5" y1="431" x2="343.5" y2="446" stroke="#F1E6D4"/>
<line x1="340.5" y1="431" x2="340.5" y2="446" stroke="#F1E6D4"/>
<line x1="337.5" y1="431" x2="337.5" y2="446" stroke="#F1E6D4"/>
<line x1="334.5" y1="431" x2="334.5" y2="446" stroke="#F1E6D4"/>
<line x1="332.5" y1="431" x2="332.5" y2="446" stroke="#F1E6D4" stroke-width="3"/>
<line x1="329.5" y1="431" x2="329.5" y2="446" stroke="#F1E6D4" stroke-width="3"/>
<line x1="326.5" y1="431" x2="326.5" y2="446" stroke="#F1E6D4" stroke-width="3"/>
<line x1="322.5" y1="431" x2="322.5" y2="446" stroke="#F1E6D4"/>
<line x1="319.5" y1="431" x2="319.5" y2="446" stroke="#F1E6D4"/>
<line x1="317.5" y1="431" x2="317.5" y2="446" stroke="#F1E6D4" stroke-width="3"/>
<line x1="313.5" y1="431" x2="313.5" y2="446" stroke="#F1E6D4"/>
<line x1="310.5" y1="431" x2="310.5" y2="446" stroke="#F1E6D4"/>
<path d="M13 23C13 17.4772 17.4772 13 23 13V13V23H13V23Z" fill="#F1E6D4"/>
<path d="M33 23C33 28.5228 28.5228 33 23 33V33V23H33V23Z" fill="#F1E6D4"/>
<path d="M510 23C510 17.4772 505.523 13 500 13V13V23H510V23Z" fill="#F1E6D4"/>
<path d="M490 23C490 28.5228 494.477 33 500 33V33V23H490V23Z" fill="#F1E6D4"/>
<path d="M33 439C33 433.477 28.5228 429 23 429V429V439H33V439Z" fill="#F1E6D4"/>
<path d="M13 439C13 444.523 17.4772 449 23 449V449V439H13V439Z" fill="#F1E6D4"/>
<path d="M490 439C490 433.477 494.477 429 500 429V429V439H490V439Z" fill="#F1E6D4"/>
<path d="M510 439C510 444.523 505.523 449 500 449V449V439H510V439Z" fill="#F1E6D4"/>
</svg>
